<?xml version="1.0" encoding="UTF-8" standalone="no"?>
<!-- Created with Inkscape (http://www.inkscape.org/) -->

<svg
   xmlns:dc="http://purl.org/dc/elements/1.1/"
   xmlns:cc="http://creativecommons.org/ns#"
   xmlns:rdf="http://www.w3.org/1999/02/22-rdf-syntax-ns#"
   xmlns:svg="http://www.w3.org/2000/svg"
   xmlns="http://www.w3.org/2000/svg"
   xmlns:sodipodi="http://sodipodi.sourceforge.net/DTD/sodipodi-0.dtd"
   xmlns:inkscape="http://www.inkscape.org/namespaces/inkscape"
   width="28in"
   height="72in"
   id="svg2"
   version="1.1"
   inkscape:version="0.91 r13725"
   sodipodi:docname="2017-dotnetfringe-banner-welcome-28x72.svg"
   inkscape:export-filename="/Users/thoward/github/writethedocs/writethedocs.github.com/img/signs/wtd-na-2014-sign-2x5-entrance.png"
   inkscape:export-xdpi="300"
   inkscape:export-ydpi="300">
  <defs
     id="defs4">
    <marker
       viewBox="0 0 10 10"
       refY="5"
       refX="10"
       orient="auto"
       markerWidth="4"
       markerUnits="strokeWidth"
       markerHeight="3"
       id="ArrowStart">
      <path
         id="path1403"
         d="M 10,0 0,5 10,10 Z"
         inkscape:connector-curvature="0" />
    </marker>
    <marker
       viewBox="0 0 10 10"
       refY="5"
       refX="0"
       orient="auto"
       markerWidth="4"
       markerUnits="strokeWidth"
       markerHeight="3"
       id="ArrowEnd">
      <path
         id="path1400"
         d="M 0,0 10,5 0,10 Z"
         inkscape:connector-curvature="0" />
    </marker>
    <inkscape:perspective
       sodipodi:type="inkscape:persp3d"
       inkscape:vp_x="0 : 526.18109 : 1"
       inkscape:vp_y="0 : 1000 : 0"
       inkscape:vp_z="744.09448 : 526.18109 : 1"
       inkscape:persp3d-origin="372.04724 : 350.78739 : 1"
       id="perspective10" />
    <inkscape:perspective
       id="perspective2447"
       inkscape:persp3d-origin="372.04724 : 350.78739 : 1"
       inkscape:vp_z="744.09448 : 526.18109 : 1"
       inkscape:vp_y="0 : 1000 : 0"
       inkscape:vp_x="0 : 526.18109 : 1"
       sodipodi:type="inkscape:persp3d" />
    <inkscape:perspective
       sodipodi:type="inkscape:persp3d"
       inkscape:vp_x="0 : 526.18109 : 1"
       inkscape:vp_y="0 : 1000 : 0"
       inkscape:vp_z="744.09448 : 526.18109 : 1"
       inkscape:persp3d-origin="372.04724 : 350.78739 : 1"
       id="perspective10-5" />
    <inkscape:perspective
       id="perspective2447-8"
       inkscape:persp3d-origin="372.04724 : 350.78739 : 1"
       inkscape:vp_z="744.09448 : 526.18109 : 1"
       inkscape:vp_y="0 : 1000 : 0"
       inkscape:vp_x="0 : 526.18109 : 1"
       sodipodi:type="inkscape:persp3d" />
    <clipPath
       clipPathUnits="userSpaceOnUse"
       id="clipPath3379">
      <rect
         style="fill:none;stroke:none"
         id="rect3381"
         width="1920.6416"
         height="1187.0219"
         x="142.26793"
         y="-2868.8977" />
    </clipPath>
  </defs>
  <sodipodi:namedview
     id="base"
     pagecolor="#ffffff"
     bordercolor="#f4f4f4"
     borderopacity="1"
     inkscape:pageopacity="0.0"
     inkscape:pageshadow="2"
     inkscape:zoom="0.059591541"
     inkscape:cx="1821.071"
     inkscape:cy="3565.5094"
     inkscape:document-units="px"
     inkscape:current-layer="layer1"
     showgrid="false"
     units="in"
     showguides="false"
     inkscape:guide-bbox="true"
     inkscape:window-width="1280"
     inkscape:window-height="704"
     inkscape:window-x="21"
     inkscape:window-y="43"
     inkscape:window-maximized="0"
     borderlayer="false"
     showborder="true"
     inkscape:showpageshadow="false">
    <sodipodi:guide
       orientation="1,0"
       position="18.130345,246.73035"
       id="guide3765" />
    <sodipodi:guide
       orientation="1,0"
       position="245.94208,232.54139"
       id="guide3767" />
    <sodipodi:guide
       orientation="0,1"
       position="279.61797,56.70031"
       id="guide3834" />
  </sodipodi:namedview>
  <metadata
     id="metadata7">
    <rdf:RDF>
      <cc:Work
         rdf:about="">
        <dc:format>image/svg+xml</dc:format>
        <dc:type
           rdf:resource="http://purl.org/dc/dcmitype/StillImage" />
        <dc:title></dc:title>
      </cc:Work>
    </rdf:RDF>
  </metadata>
  <g
     inkscape:label="Layer 1"
     inkscape:groupmode="layer"
     id="layer1"
     transform="translate(0,5427.638)">
    <rect
       style="opacity:1;fill:#000000;fill-opacity:1;stroke:none;stroke-width:16;stroke-miterlimit:4;stroke-dasharray:none;stroke-dashoffset:0;stroke-opacity:1"
       id="rect9660"
       width="2520"
       height="6480"
       x="0"
       y="-5427.6382" />
    <text
       xml:space="preserve"
       style="font-style:normal;font-weight:normal;font-size:40px;line-height:125%;font-family:Sans;letter-spacing:0px;word-spacing:0px;fill:#000000;fill-opacity:1;stroke:none"
       x="347.96902"
       y="79.22509"
       id="text3839"
       sodipodi:linespacing="125%"
       transform="translate(0,680.31495)"><tspan
         sodipodi:role="line"
         id="tspan3841"
         x="347.96902"
         y="79.22509" /></text>
    <text
       sodipodi:linespacing="150%"
       id="text3800"
       y="-4748.1069"
       x="1266.865"
       style="font-style:normal;font-variant:normal;font-weight:normal;font-stretch:normal;font-size:287.25750732px;line-height:150%;font-family:Poly;-inkscape-font-specification:Poly;text-align:center;letter-spacing:0px;word-spacing:0px;writing-mode:lr-tb;text-anchor:middle;fill:#fdb7b7;fill-opacity:1;stroke:none;"
       xml:space="preserve"><tspan
         y="-4748.1069"
         x="1266.865"
         sodipodi:role="line"
         id="tspan13631"
         style="font-style:normal;font-variant:normal;font-weight:normal;font-stretch:normal;line-height:150%;font-family:Poly;-inkscape-font-specification:Poly;text-align:center;text-anchor:middle;fill:#fdb7b7;fill-opacity:1;">WELCOME</tspan><tspan
         y="-4317.2207"
         x="1301.9305"
         sodipodi:role="line"
         id="tspan13635"
         style="font-style:normal;font-variant:normal;font-weight:normal;font-stretch:normal;line-height:150%;font-family:Poly;-inkscape-font-specification:Poly;text-align:center;text-anchor:middle;fill:#fdb7b7;fill-opacity:1;">TO </tspan></text>
    <g
       transform="matrix(2.4690792,0,0,2.4690792,-712.50412,-5964.5217)"
       id="layer1-2"
       inkscape:label="Layer 1">
      <text
         sodipodi:linespacing="125%"
         id="text3340"
         y="228.38028"
         x="795.70172"
         style="font-style:normal;font-variant:normal;font-weight:normal;font-stretch:normal;font-size:40px;line-height:125%;font-family:ADAM;-inkscape-font-specification:ADAM;letter-spacing:0px;word-spacing:0px;fill:#000000;fill-opacity:1;stroke:none;stroke-width:1px;stroke-linecap:butt;stroke-linejoin:miter;stroke-opacity:1"
         xml:space="preserve"><tspan
           y="228.38028"
           x="795.70172"
           id="tspan3342"
           sodipodi:role="line" /></text>
      <g
         inkscape:transform-center-y="-1538.0481"
         inkscape:transform-center-x="-631.51749"
         transform="matrix(1.1075932,0,0,1.1075932,337.46924,739.10469)"
         id="g6495">
        <text
           transform="matrix(1,0,-0.27206524,1,0,0)"
           xml:space="preserve"
           style="font-style:normal;font-variant:normal;font-weight:normal;font-stretch:normal;font-size:40px;line-height:125%;font-family:ADAM;-inkscape-font-specification:ADAM;letter-spacing:0px;word-spacing:0px;fill:none;fill-opacity:1;stroke:#ffd700;stroke-width:6.49689436;stroke-linecap:butt;stroke-linejoin:miter;stroke-miterlimit:4;stroke-dasharray:none;stroke-opacity:1"
           x="89.613937"
           y="275.94241"
           id="text3336"
           sodipodi:linespacing="125%"><tspan
             rotate="0 0 0"
             sodipodi:role="line"
             id="tspan3338"
             x="89.613937"
             y="275.94241"
             style="font-style:normal;font-variant:normal;font-weight:900;font-stretch:normal;font-size:250px;font-family:'Titillium Web Black';-inkscape-font-specification:'Titillium Web Black, Heavy';fill:none;stroke:#ffd700;stroke-width:6.49689436;stroke-miterlimit:4;stroke-dasharray:none;stroke-opacity:1"
             dx="0 0 0 7">.NET</tspan></text>
        <text
           xml:space="preserve"
           style="font-style:normal;font-variant:normal;font-weight:normal;font-stretch:normal;font-size:200px;line-height:125%;font-family:'Mr Dafoe';-inkscape-font-specification:'Mr Dafoe';letter-spacing:0px;word-spacing:0px;fill:#ff1493;fill-opacity:1;stroke:#ff1493;stroke-width:3.5;stroke-linecap:butt;stroke-linejoin:miter;stroke-miterlimit:4;stroke-dasharray:none;stroke-opacity:1"
           x="204.12068"
           y="482.08261"
           id="text3370"
           sodipodi:linespacing="125%"
           transform="matrix(0.96592583,-0.25881905,0.25881905,0.96592583,0,0)"><tspan
             sodipodi:role="line"
             id="tspan3372"
             x="204.12068"
             y="482.08261">Fringe</tspan></text>
        <text
           sodipodi:linespacing="125%"
           id="text6520"
           y="470.95731"
           x="767.46704"
           style="font-style:normal;font-variant:normal;font-weight:normal;font-stretch:normal;font-size:118.12535858px;line-height:125%;font-family:ADAM;-inkscape-font-specification:ADAM;letter-spacing:0px;word-spacing:0px;fill:#000000;fill-opacity:1;stroke:none;stroke-width:1px;stroke-linecap:butt;stroke-linejoin:miter;stroke-opacity:1"
           xml:space="preserve"><tspan
             y="470.95731"
             x="767.46704"
             id="tspan6522"
             sodipodi:role="line" /></text>
      </g>
    </g>
    <text
       xml:space="preserve"
       style="font-style:normal;font-variant:normal;font-weight:normal;font-stretch:normal;font-size:245.82450867px;line-height:125%;font-family:Aleo;-inkscape-font-specification:Aleo;text-align:start;letter-spacing:0px;word-spacing:0px;writing-mode:lr-tb;text-anchor:start;fill:#363948;fill-opacity:1;stroke:none"
       x="610.82355"
       y="-380.30093"
       id="text9666"
       sodipodi:linespacing="125%"><tspan
         sodipodi:role="line"
         id="tspan9668"
         x="0"
         y="0"><tspan
           style="font-weight:bold;-inkscape-font-specification:'Aleo Bold';fill:#363948;fill-opacity:1"
           id="tspan9670" /></tspan></text>
    <text
       xml:space="preserve"
       style="font-style:normal;font-variant:normal;font-weight:normal;font-stretch:normal;font-size:577.76751709px;line-height:125%;font-family:Poly;-inkscape-font-specification:Poly;text-align:center;letter-spacing:0px;word-spacing:0px;writing-mode:lr-tb;text-anchor:middle;fill:#fdb7b7;fill-opacity:1;stroke:none;opacity:0.99;"
       x="1253.9966"
       y="-2427.9868"
       id="text13667"
       sodipodi:linespacing="125%"><tspan
         id="tspan13677"
         sodipodi:role="line"
         x="1253.9966"
         y="-2427.9868">2017</tspan></text>
    <text
       xml:space="preserve"
       style="font-style:normal;font-variant:normal;font-weight:normal;font-stretch:normal;font-size:278.72613525px;line-height:125%;font-family:Poly;-inkscape-font-specification:Poly;text-align:center;letter-spacing:0px;word-spacing:0px;writing-mode:lr-tb;text-anchor:middle;fill:#fdb7b7;fill-opacity:1;stroke:none"
       x="1259.3032"
       y="104.96773"
       id="text13689"
       sodipodi:linespacing="125%"><tspan
         sodipodi:role="line"
         x="1293.3274"
         y="104.96773"
         style="font-style:normal;font-variant:normal;font-weight:normal;font-stretch:normal;line-height:125%;font-family:Poly;-inkscape-font-specification:Poly;text-align:center;text-anchor:middle;fill:#fdb7b7;fill-opacity:1"
         id="tspan13742">YOU MADE </tspan><tspan
         sodipodi:role="line"
         x="1259.3032"
         y="453.37537"
         style="font-style:normal;font-variant:normal;font-weight:normal;font-stretch:normal;line-height:125%;font-family:Poly;-inkscape-font-specification:Poly;text-align:center;text-anchor:middle;fill:#fdb7b7;fill-opacity:1"
         id="tspan13758">IT HERE!</tspan></text>
    <g
       id="g14289"
       transform="translate(3821.2821,-1622.6914)" />
    <g
       id="g14291"
       transform="translate(3821.2821,-1622.6914)" />
    <g
       id="g14293"
       transform="translate(3821.2821,-1622.6914)" />
    <g
       id="g14295"
       transform="translate(3821.2821,-1622.6914)" />
    <g
       id="g14297"
       transform="translate(3821.2821,-1622.6914)" />
    <g
       id="g14299"
       transform="translate(3821.2821,-1622.6914)" />
    <g
       id="g14301"
       transform="translate(3821.2821,-1622.6914)" />
    <g
       id="g14303"
       transform="translate(3821.2821,-1622.6914)" />
    <g
       id="g14305"
       transform="translate(3821.2821,-1622.6914)" />
    <g
       id="g14307"
       transform="translate(3821.2821,-1622.6914)" />
    <g
       id="g14309"
       transform="translate(3821.2821,-1622.6914)" />
    <g
       id="g14311"
       transform="translate(3821.2821,-1622.6914)" />
    <g
       id="g14313"
       transform="translate(3821.2821,-1622.6914)" />
    <g
       id="g14315"
       transform="translate(3821.2821,-1622.6914)" />
    <g
       id="g14317"
       transform="translate(3821.2821,-1622.6914)" />
    <g
       id="g14911"
       transform="translate(4.8365534e-6,-1208.2252)">
      <path
         inkscape:connector-curvature="0"
         d="m 369.98019,-185.88778 c 28.56,0 51.794,-23.242 51.794,-51.81 0,-28.567 -23.234,-51.809 -51.794,-51.809 -28.567,0 -51.808,23.241 -51.808,51.809 10e-4,28.568 23.241,51.81 51.808,51.81 z"
         id="path14277"
         style="fill:#008080" />
      <path
         inkscape:connector-curvature="0"
         d="m 488.33919,-241.97278 c -5.604,0 -10.939,2.116 -15.023,5.959 l -20.032,18.855 c -3.952,3.719 -11.351,9.655 -15.834,12.703 l -40.301,27.389 -60.33,0 c -10.197,0 -15.483,2.997 -19.665,8.223 l -26.258,32.802 c -4.247,5.305 -11.005,14.121 -15.064,19.654 l -17.792,24.262 c -3.463,4.723 -4.88,10.512 -3.989,16.3 0.891,5.788 3.981,10.883 8.703,14.346 3.788,2.777 8.266,4.245 12.95,4.245 6.966,0 13.581,-3.35 17.695,-8.959 l 17.793,-24.262 c 0.095,-0.129 0.198,-0.269 0.296,-0.402 l -3.761,42.027 -30.774,146.156 c -1.272,6.041 -0.116,12.217 3.257,17.388 3.373,5.172 8.559,8.721 14.598,9.992 1.574,0.333 3.184,0.502 4.786,0.502 10.855,0 20.359,-7.721 22.598,-18.358 l 28.801,-136.778 7.5,0 4.113,46.168 c 0.494,5.544 0.743,15.29 0.533,20.857 l -2.424,64.117 c -0.233,6.17 1.949,12.061 6.147,16.589 4.198,4.528 9.908,7.15 16.081,7.384 0.296,0.011 0.591,0.018 0.884,0.018 12.474,0 22.614,-9.771 23.085,-22.244 l 2.424,-64.114 c 0.284,-7.497 -0.015,-19.229 -0.682,-26.71 l -6.151,-69.033 c -0.017,-0.186 -0.056,-0.367 -0.076,-0.553 l 6.689,-74.735 52.981,-36.007 c 6.328,-4.3 15.657,-11.783 21.238,-17.035 l 20.032,-18.855 c 8.803,-8.287 9.224,-22.189 0.939,-30.991 -4.124,-4.386 -9.945,-6.9 -15.967,-6.9 z"
         id="path14279"
         style="fill:#008080" />
      <path
         inkscape:connector-curvature="0"
         d="m 648.73819,-201.88778 c 28.566,0 51.809,-23.242 51.809,-51.81 0,-28.567 -23.242,-51.809 -51.809,-51.809 -28.559,0 -51.793,23.241 -51.793,51.809 0,28.568 23.235,51.81 51.793,51.81 z"
         id="path14281"
         style="fill:#800080" />
      <path
         inkscape:connector-curvature="0"
         d="m 727.57019,-82.19378 c 4.115,5.609 10.73,8.959 17.695,8.959 4.685,0 9.162,-1.468 12.95,-4.245 4.722,-3.463 7.812,-8.558 8.703,-14.346 0.891,-5.788 -0.526,-11.577 -3.989,-16.3 l -17.794,-24.262 c -4.054,-5.526 -10.81,-14.343 -15.062,-19.653 l -26.26,-32.803 c -4.184,-5.227 -8.858,-8.224 -17.129,-8.224 -0.207,0 -65.113,0 -65.113,0 l -40.3,-27.39 c -4.818,-3.272 -11.103,-8.246 -13.503,-10.507 l -6.346,-5.973 c -4.082,-3.843 -9.417,-5.959 -15.022,-5.959 -6.023,0 -11.844,2.514 -15.97,6.897 -4.014,4.265 -6.126,9.837 -5.949,15.69 0.178,5.854 2.624,11.287 6.888,15.301 l 6.344,5.97 c 4.331,4.079 12.46,10.461 18.908,14.845 l 52.98,36.005 6.689,74.731 c -0.021,0.188 -0.06,0.368 -0.076,0.557 l -6.151,69.032 c -0.904,10.121 1.232,24.295 5.079,33.703 l 18.376,44.959 c 3.569,8.733 11.972,14.376 21.405,14.376 3.001,0 5.94,-0.58 8.737,-1.725 5.716,-2.335 10.179,-6.757 12.569,-12.451 2.39,-5.693 2.419,-11.977 0.083,-17.69 l -18.378,-44.964 c -1.068,-2.614 -2.074,-9.288 -1.823,-12.104 l 4.114,-46.168 7.499,0 10.962,52.053 c 2.028,9.626 8.021,17.822 16.439,22.486 4.854,2.691 10.392,4.113 16.014,4.113 4.011,0 7.97,-0.706 11.769,-2.099 l 24.201,-8.869 c 11.968,-4.387 18.137,-17.69 13.751,-29.657 -3.324,-9.073 -12.046,-15.169 -21.704,-15.169 -2.711,0 -5.388,0.477 -7.954,1.418 l -10.323,3.783 -9.89,-46.955 -4.068,-45.466 c 1.049,1.395 2.023,2.703 2.853,3.836 l 17.796,24.265 z"
         id="path14283"
         style="fill:#800080" />
      <path
         inkscape:connector-curvature="0"
         d="m 536.38819,-275.07378 c 0.618,0.157 1.238,0.232 1.849,0.232 3.35,0 6.403,-2.262 7.264,-5.659 2.409,-9.501 8.46,-23.929 13.555,-26.307 3.753,-1.751 5.376,-6.214 3.624,-9.968 -1.75,-3.753 -6.213,-5.378 -9.968,-3.624 -13.568,6.332 -20.499,31.276 -21.75,36.213 -1.02,4.016 1.41,8.096 5.426,9.113 z"
         id="path14285"
         style="fill:#3771c8" />
      <path
         inkscape:connector-curvature="0"
         d="m 501.77519,-294.76278 c -3.752,-1.751 -8.216,-0.129 -9.969,3.625 -1.751,3.754 -0.128,8.217 3.625,9.969 5.069,2.365 11.13,16.8 13.557,26.311 0.863,3.395 3.914,5.654 7.263,5.654 0.61,0 1.23,-0.075 1.849,-0.232 4.016,-1.018 6.445,-5.098 5.427,-9.112 -1.252,-4.938 -8.182,-29.882 -21.752,-36.215 z"
         id="path14287"
         style="fill:#3771c8" />
      <g
         transform="matrix(1.32775,0,0,1.32775,1611.5589,-635.02936)"
         id="g14434">
        <g
           id="g14350">
          <g
             id="g14352">
            <circle
               style="fill:#933ec5"
               cx="250.12"
               cy="123.445"
               r="42.112999"
               id="circle14354" />
          </g>
        </g>
        <g
           id="g14356">
          <g
             id="g14358">
            <path
               style="fill:#933ec5"
               inkscape:connector-curvature="0"
               d="m 412.171,385.912 c -62.514,-78.3 -57.974,-72.967 -60.834,-75.305 L 322.463,193.199 405.323,80.71 c 6.656,-9.036 4.726,-21.757 -4.309,-28.412 -9.036,-6.655 -21.757,-4.726 -28.412,4.309 l -83.755,113.706 c -0.414,0.082 -0.828,0.17 -1.242,0.273 -53.604,13.183 -50.278,12.263 -52.777,13.231 L 132.16,79.297 c -7.864,-8.005 -20.729,-8.121 -28.736,-0.256 -8.006,7.864 -8.121,20.73 -0.256,28.736 l 116.658,118.758 32.267,131.205 -9.407,33.301 -82.095,-14.531 c -13.26,-2.341 -25.913,6.5 -28.26,19.761 -2.346,13.26 6.5,25.913 19.761,28.26 l 103.814,18.375 c 12.34,2.183 24.313,-5.339 27.715,-17.383 23.298,-82.477 21.824,-76.696 22.167,-79.802 l 10.037,-2.469 c 1.019,1.487 -3.123,-3.765 45.621,57.286 l -61.276,71.168 c -8.787,10.205 -7.637,25.601 2.568,34.388 10.206,8.789 25.603,7.635 34.388,-2.568 l 74.469,-86.491 c 7.649,-8.885 7.892,-21.959 0.576,-31.123 z"
               id="path14360" />
          </g>
        </g>
        <g
           style="fill:#aa87de"
           id="g14362">
          <g
             style="fill:#aa87de"
             id="g14364">
            <path
               style="fill:#aa87de"
               inkscape:connector-curvature="0"
               d="m 479.159,87.55 c -5.676,0 -10.549,3.409 -12.705,8.286 -2.156,-4.878 -7.029,-8.286 -12.705,-8.286 -7.673,0 -13.894,6.221 -13.894,13.894 0,15.06 19.27,30.224 25.006,34.404 0.95,0.693 2.236,0.692 3.186,-0.001 5.738,-4.182 25.005,-19.345 25.005,-34.403 10e-4,-7.673 -6.22,-13.894 -13.893,-13.894 z"
               id="path14366" />
          </g>
        </g>
        <g
           style="fill:#aa87de"
           id="g14368">
          <g
             style="fill:#aa87de"
             id="g14370">
            <path
               style="fill:#aa87de"
               inkscape:connector-curvature="0"
               d="m 117.822,188.713 c -5.676,0 -10.549,3.409 -12.705,8.286 -2.156,-4.878 -7.029,-8.286 -12.705,-8.286 -7.673,0 -13.894,6.22 -13.894,13.894 0,15.06 19.27,30.224 25.006,34.404 0.95,0.693 2.236,0.692 3.186,-0.001 5.739,-4.182 25.005,-19.345 25.005,-34.403 0,-7.675 -6.22,-13.894 -13.893,-13.894 z"
               id="path14372" />
          </g>
        </g>
        <g
           style="fill:#aa87de"
           id="g14374">
          <g
             style="fill:#aa87de"
             id="g14376">
            <path
               style="fill:#aa87de"
               inkscape:connector-curvature="0"
               d="m 50.621,103.015 c -4.575,0 -8.501,2.746 -10.239,6.677 -1.737,-3.931 -5.665,-6.677 -10.239,-6.677 -6.183,0 -11.196,5.012 -11.196,11.196 0,12.135 15.528,24.355 20.151,27.725 0.765,0.558 1.802,0.557 2.568,-0.001 4.624,-3.37 20.15,-15.589 20.15,-27.724 0,-6.184 -5.012,-11.196 -11.195,-11.196 z"
               id="path14378" />
          </g>
        </g>
        <g
           style="fill:#aa87de"
           id="g14380">
          <g
             style="fill:#aa87de"
             id="g14382">
            <path
               style="fill:#aa87de"
               inkscape:connector-curvature="0"
               d="M 136.79,0 C 132.215,0 128.289,2.746 126.551,6.677 124.813,2.746 120.886,0 116.312,0 c -6.183,0 -11.196,5.012 -11.196,11.196 0.001,12.135 15.53,24.355 20.152,27.724 0.765,0.558 1.802,0.557 2.568,-0.001 4.624,-3.37 20.15,-15.589 20.15,-27.724 C 147.985,5.012 142.973,0 136.79,0 Z"
               id="path14384" />
          </g>
        </g>
        <g
           style="fill:#aa87de"
           id="g14386">
          <g
             style="fill:#aa87de"
             id="g14388">
            <path
               style="fill:#aa87de"
               inkscape:connector-curvature="0"
               d="m 442.763,4.62 c -3.5,0 -6.505,2.101 -7.833,5.109 -1.33,-3.008 -4.334,-5.109 -7.834,-5.109 -4.731,0 -8.566,3.835 -8.566,8.566 0,9.284 11.881,18.634 15.418,21.212 0.586,0.427 1.379,0.427 1.964,-0.001 3.539,-2.579 15.417,-11.927 15.417,-21.211 0,-4.73 -3.835,-8.566 -8.566,-8.566 z"
               id="path14390" />
          </g>
        </g>
        <g
           style="fill:#aa87de"
           id="g14392">
          <g
             style="fill:#aa87de"
             id="g14394">
            <path
               style="fill:#aa87de"
               inkscape:connector-curvature="0"
               d="m 328.939,34.717 c -3.5,0 -6.505,2.101 -7.833,5.109 -1.33,-3.008 -4.334,-5.109 -7.834,-5.109 -4.731,0 -8.566,3.835 -8.566,8.566 10e-4,9.285 11.881,18.635 15.418,21.212 0.586,0.427 1.379,0.427 1.964,-0.001 3.538,-2.578 15.417,-11.927 15.417,-21.211 0,-4.73 -3.835,-8.566 -8.566,-8.566 z"
               id="path14396" />
          </g>
        </g>
        <g
           id="g14398" />
        <g
           id="g14400" />
        <g
           id="g14402" />
        <g
           id="g14404" />
        <g
           id="g14406" />
        <g
           id="g14408" />
        <g
           id="g14410" />
        <g
           id="g14412" />
        <g
           id="g14414" />
        <g
           id="g14416" />
        <g
           id="g14418" />
        <g
           id="g14420" />
        <g
           id="g14422" />
        <g
           id="g14424" />
        <g
           id="g14426" />
      </g>
      <g
         transform="translate(1053.8308,-523.70072)"
         id="g14528">
        <circle
           style="fill:#ffc10e"
           cx="236.966"
           cy="236.966"
           r="236.966"
           id="circle14476" />
        <path
           inkscape:connector-curvature="0"
           style="fill:#ffffff"
           d="m 81.391,237.123 c 0,85.911 69.649,155.56 155.56,155.56 85.915,0 155.564,-69.649 155.564,-155.56 l -311.124,0 0,0 z"
           id="path14478" />
        <g
           id="g14480">
          <path
             inkscape:connector-curvature="0"
             style="fill:#cccbcb"
             d="m 167.728,237.123 c 0,46.435 0,92.87 0,139.306 6.024,3.001 12.273,5.609 18.709,7.82 0,-49.043 0,-98.083 0,-147.126 l -18.709,0 z"
             id="path14482" />
          <path
             inkscape:connector-curvature="0"
             style="fill:#cccbcb"
             d="m 283.319,237.123 c 0,49.511 0,99.018 0,148.529 6.432,-2.006 12.666,-4.453 18.709,-7.24 0,-47.098 0,-94.191 0,-141.289 l -18.709,0 0,0 z"
             id="path14484" />
        </g>
        <g
           id="g14486">
          <path
             inkscape:connector-curvature="0"
             style="fill:#333333"
             d="m 219.181,158.793 c -1.684,-31.255 -23.992,-53.56 -55.243,-55.243 -31.184,-1.68 -53.698,26.522 -55.243,55.243 -0.651,12.063 18.061,12 18.709,0 2.537,-47.09 70.536,-47.09 73.069,0 0.647,12 19.359,12.063 18.708,0 l 0,0 z"
             id="path14488" />
          <path
             inkscape:connector-curvature="0"
             style="fill:#333333"
             d="m 353.985,158.793 c -1.684,-31.255 -23.992,-53.56 -55.243,-55.243 -31.184,-1.68 -53.694,26.522 -55.243,55.243 -0.651,12.063 18.061,12 18.709,0 2.537,-47.09 70.532,-47.09 73.069,0 0.647,12 19.36,12.063 18.708,0 l 0,0 z"
             id="path14490" />
        </g>
        <g
           id="g14492" />
        <g
           id="g14494" />
        <g
           id="g14496" />
        <g
           id="g14498" />
        <g
           id="g14500" />
        <g
           id="g14502" />
        <g
           id="g14504" />
        <g
           id="g14506" />
        <g
           id="g14508" />
        <g
           id="g14510" />
        <g
           id="g14512" />
        <g
           id="g14514" />
        <g
           id="g14516" />
        <g
           id="g14518" />
        <g
           id="g14520" />
      </g>
      <path
         id="path14558"
         d="m 1149.5719,445.4559 0,73.893 c 0,5.948 4.822,10.771 10.774,10.771 5.952,0 10.774,-4.823 10.774,-10.771 l 0,-67.14 -34.128,-36.022 c -7.454,-7.87 -10.395,-18.862 -7.864,-29.403 l 8.213,-34.223 -9.599,0 7.2,-10.921 c 1.518,0.694 3.115,1.242 4.792,1.582 1.732,-5.113 4.669,-9.578 8.449,-13.103 4.954,-4.615 11.353,-7.595 18.36,-8.333 1.049,-0.11 2.108,-0.181 3.186,-0.187 l 0,-35.254 c 0,-5.949 -4.823,-10.771 -10.771,-10.771 -5.948,0 -10.771,4.826 -10.771,10.771 l 0,12.999 c -1.288,-0.232 -2.61,-0.374 -3.966,-0.374 -1.365,0 -2.693,0.141 -3.99,0.376 l 0,-30.673 c 0,-5.949 -4.822,-10.771 -10.774,-10.771 -5.948,0 -10.771,4.822 -10.771,10.771 l 0,58.489 -5.217,7.916 -5.217,-7.916 0,-58.489 c 0,-5.949 -4.823,-10.771 -10.771,-10.771 -5.948,0 -10.771,4.822 -10.771,10.771 l 0,30.673 c -1.297,-0.232 -2.625,-0.376 -3.99,-0.376 -2.751,0 -5.376,0.521 -7.812,1.432 l 0,-50.089 c 0,-5.949 -4.823,-10.771 -10.774,-10.771 -5.951,0 -10.771,4.823 -10.771,10.771 l 0,58.489 -6.613,10.034 0,-50.163 c 0,-5.949 -4.823,-10.771 -10.771,-10.771 -5.948,0 -10.771,4.822 -10.771,10.771 l 0,13.369 c -2.436,-0.909 -5.058,-1.432 -7.812,-1.432 -12.344,0 -22.35097,10.006 -22.35097,22.35 0,12.344 10.00597,22.351 22.35097,22.351 2.751,0 5.376,-0.521 7.812,-1.432 l 0,6.512 c 0,1.31 0.266,2.595 0.725,3.807 l -8.537,0 -19.23297,0 -16.741,-25.398 0,-58.485 c 0,-5.949 -4.823,-10.771 -10.771,-10.771 -5.948,0 -10.772,4.821 -10.772,10.769 l 0,61.72 c 0,2.108 0.618,4.167 1.778,5.927 l 29.051,44.076 0,47.09 c -0.138,0.691 -0.214,1.404 -0.214,2.136 l 0,89.728 c 0,5.949 4.822,10.771 10.77097,10.771 5.949,0 10.774,-4.822 10.774,-10.771 l 0,-73.895 5.355,0 5.355,0 0,73.893 c 0,5.949 4.823,10.771 10.774,10.771 5.951,0 10.774,-4.822 10.774,-10.771 l 0,-89.728 c 0,-0.731 -0.076,-1.444 -0.214,-2.136 l 0,-46.867 11.955,18.137 0,47.09 c -0.138,0.691 -0.214,1.404 -0.214,2.136 l 0,89.729 c 0,5.948 4.822,10.771 10.774,10.771 5.949,0 10.771,-4.823 10.771,-10.771 l 0,-73.893 5.355,0 5.355,0 0,73.893 c 0,5.948 4.822,10.771 10.771,10.771 5.949,0 10.771,-4.823 10.771,-10.771 l 0,-89.729 c 0,-0.731 -0.077,-1.444 -0.214,-2.136 l 0,-47.09 4.067,-6.172 4.066,6.172 0,47.09 c -0.138,0.691 -0.214,1.404 -0.214,2.136 l 0,89.729 c 0,5.948 4.822,10.771 10.771,10.771 5.949,0 10.774,-4.823 10.774,-10.771 l 0,-73.893 5.355,0 5.346,0 0,0 z m -66.861,-92.896 -19.23,0 -6.582,-9.988 6.555,-9.945 c 3.886,6.6 11.043,11.043 19.256,11.043 3.314,0 6.445,-0.741 9.275,-2.032 l 7.2,10.921 -16.474,0 z"
         inkscape:connector-curvature="0"
         style="fill:#677821" />
      <path
         id="path14560"
         d="m 1194.2879,332.9539 c 1.107,-1.771 2.295,-3.485 3.595,-5.107 1.212,-1.512 2.482,-2.971 3.847,-4.342 2.396,-2.408 5.019,-4.584 7.831,-6.505 3.075,-2.099 6.383,-3.874 9.869,-5.306 l 0,-17.274 c 0,-5.948 -4.823,-10.771 -10.771,-10.771 -2.653,0 -5.052,0.998 -6.928,2.585 l 0,-17.561 c 0,-5.949 -4.823,-10.771 -10.774,-10.771 -5.951,0 -10.771,4.822 -10.771,10.771 l 0,54.633 c 2.472,0.835 4.771,1.967 6.897,3.326 2.734,1.745 5.151,3.883 7.205,6.322 z"
         inkscape:connector-curvature="0"
         style="fill:#677821" />
      <polygon
         transform="translate(953.31093,135.1149)"
         id="polygon14562"
         points="233.902,379.239 233.902,334.086 225.484,325.2 225.484,389.527 "
         style="fill:#677821" />
      <path
         id="path14564"
         d="m 1490.4459,247.6139 c -5.947,0 -10.771,4.823 -10.771,10.771 l 0,58.489 -16.74,25.398 -19.229,0 -8.537,0 c 0.459,-1.215 0.725,-2.497 0.725,-3.807 l 0,-6.512 c 2.436,0.909 5.059,1.432 7.809,1.432 12.344,0 22.35,-10.006 22.35,-22.35 0,-12.344 -10.006,-22.351 -22.35,-22.351 -2.75,0 -5.377,0.521 -7.809,1.432 l 0,-13.369 c 0,-5.949 -4.822,-10.771 -10.775,-10.771 -5.947,0 -10.77,4.822 -10.77,10.771 l 0,50.166 -6.617,-10.034 0,-58.495 c 0,-5.949 -4.822,-10.771 -10.77,-10.771 -5.949,0 -10.775,4.823 -10.775,10.771 l 0,50.089 c -2.436,-0.909 -5.059,-1.432 -7.812,-1.432 -1.363,0 -2.691,0.141 -3.99,0.376 l 0,-30.672 c 0,-5.949 -4.822,-10.771 -10.771,-10.771 -5.947,0 -10.77,4.822 -10.77,10.771 l 0,58.489 -5.219,7.916 -0.82,-1.242 0,2.485 0,36.662 0,2.485 0.82,-1.242 4.066,6.172 0,47.09 c -0.137,0.691 -0.213,1.404 -0.213,2.136 l 0,89.729 c 0,5.948 4.822,10.771 10.773,10.771 5.949,0 10.771,-4.823 10.771,-10.771 l 0,-73.893 5.355,0 5.355,0 0,73.893 c 0,5.948 4.822,10.771 10.77,10.771 5.949,0 10.775,-4.823 10.775,-10.771 l 0,-89.73 c 0,-0.731 -0.076,-1.444 -0.215,-2.136 l 0,-47.09 11.955,-18.137 0,46.868 c -0.137,0.691 -0.213,1.404 -0.213,2.136 l 0,89.728 c 0,5.949 4.822,10.771 10.773,10.771 5.951,0 10.771,-4.822 10.771,-10.771 l 0,-73.893 5.355,0 5.354,0 0,73.893 c 0,5.949 4.824,10.771 10.775,10.771 5.951,0 10.771,-4.822 10.771,-10.771 l 0,-89.728 c 0,-0.731 -0.076,-1.444 -0.215,-2.136 l 0,-47.091 29.051,-44.076 c 1.16,-1.76 1.779,-3.819 1.779,-5.927 l 0,-61.72 c 0,-5.946 -4.819,-10.772 -10.772,-10.772 z m -92.834,113.021 -19.229,0 -16.472,0 7.201,-10.921 c 2.826,1.294 5.961,2.032 9.275,2.032 8.213,0 15.373,-4.443 19.256,-11.043 l 6.555,9.945 -6.586,9.987 z"
         inkscape:connector-curvature="0"
         style="fill:#677821" />
      <path
         id="path14566"
         d="m 1343.5629,398.4199 c -0.602,1.236 -1.254,2.448 -2.02,3.608 l -42.299,64.177 0,66.772 c 0.221,1.524 0.334,3.061 0.334,4.581 l 0,0.517 c 0.389,0.043 0.771,0.12 1.172,0.12 5.949,0 10.771,-4.823 10.771,-10.771 l 0,-73.893 5.355,0 5.355,0 0,73.893 c 0,5.948 4.822,10.771 10.773,10.771 5.951,0 10.771,-4.823 10.771,-10.771 l 0,-89.729 c 0,-0.731 -0.076,-1.444 -0.215,-2.136 l 0,-37.139 z"
         inkscape:connector-curvature="0"
         style="fill:#677821" />
      <path
         id="path14568"
         d="m 1280.9069,276.7449 c 0,-5.949 -4.822,-10.771 -10.771,-10.771 -5.947,0 -10.773,4.822 -10.773,10.771 l 0,1.411 c -1.879,-1.591 -4.275,-2.586 -6.928,-2.586 -5.949,0 -10.771,4.826 -10.771,10.771 l 0,21.432 c 6.227,0.223 12.186,1.497 17.699,3.678 1.309,0.517 2.586,1.099 3.844,1.713 6.832,3.348 12.873,8.057 17.699,13.844 l 0,-50.263 10e-4,0 z"
         inkscape:connector-curvature="0"
         style="fill:#677821" />
      <path
         id="path14570"
         d="m 1048.4909,229.4869 c 6.426,-8.433 6.714,-20.294 1.401,-29.572 -5.747,-10.034 -30.863,-29.146 -16.992,-40.264 7.699,-6.172 -3.201,-16.925 -10.82,-10.82 -9.033,7.24 -9.893,18.354 -6.75,28.88 4.189,14.024 31.708,28.617 19.951,44.052 -5.986,7.852 7.313,15.459 13.21,7.724 z"
         inkscape:connector-curvature="0"
         style="fill:#ddff55" />
      <path
         id="path14572"
         d="m 1447.3339,164.0999 c 9.816,-0.994 6.514,-15.945 -3.197,-14.963 -11.52,1.166 -18.281,10.024 -21.365,20.569 -4.109,14.048 11.055,41.258 -7.203,47.818 -9.291,3.338 -2.266,16.952 6.887,13.663 9.979,-3.586 16.668,-13.385 17.254,-24.058 0.628,-11.544 -10.063,-41.238 7.624,-43.029 z"
         inkscape:connector-curvature="0"
         style="fill:#ddff55" />
      <path
         id="path14574"
         d="m 1147.6589,227.8029 c 1.643,10.563 9.275,19.651 19.56,22.225 9.437,2.362 15.074,-11.882 5.499,-14.281 -18.822,-4.715 -6.438,-33.296 -11.921,-46.867 -4.116,-10.187 -11.726,-18.33 -23.305,-18.345 -9.761,-0.012 -11.563,15.193 -1.695,15.205 17.771,0.028 10.087,30.641 11.862,42.063 z"
         inkscape:connector-curvature="0"
         style="fill:#ddff55" />
      <path
         id="path14576"
         d="m 1334.6429,172.9659 c 4.498,-10.025 5.105,-21.154 -2.904,-29.517 -6.75,-7.053 -18.969,2.179 -12.145,9.306 12.293,12.84 -15.113,28.495 -22.127,37.687 -6.484,8.5 -7.754,20.297 -2.488,29.501 4.83,8.442 19.01,2.647 14.111,-5.924 -9.633,-16.84 19.563,-27.696 25.553,-41.053 z"
         inkscape:connector-curvature="0"
         style="fill:#ddff55" />
      <path
         id="path14578"
         d="m 1196.5239,188.9999 c 4.097,9.875 13.666,16.895 24.266,16.958 9.728,0.061 11.83,-15.113 1.958,-15.177 -19.403,-0.123 -14.14,-30.824 -22.684,-42.708 -6.414,-8.923 -15.735,-15.031 -26.986,-12.301 -9.489,2.301 -7.638,17.5 1.952,15.174 17.281,-4.186 17.063,27.375 21.494,38.054 z"
         inkscape:connector-curvature="0"
         style="fill:#ddff55" />
      <path
         id="path14580"
         d="m 1088.4389,230.8449 c 13.813,0 13.813,-21.42 0,-21.42 -13.813,0 -13.813,21.42 0,21.42 z"
         inkscape:connector-curvature="0"
         style="fill:#ff00ff" />
      <path
         id="path14582"
         d="m 985.92893,200.2449 c 13.812,0 13.812,-21.42 0,-21.42 -13.813,0 -13.813,21.42 0,21.42 z"
         inkscape:connector-curvature="0"
         style="fill:#ff00ff" />
      <path
         id="path14584"
         d="m 1273.5689,151.2849 c -13.812,0 -13.812,21.42 0,21.42 13.812,0 13.812,-21.42 0,-21.42 z"
         inkscape:connector-curvature="0"
         style="fill:#ff00ff" />
      <path
         id="path14586"
         d="m 1253.6779,227.7849 c 13.814,0 13.814,-21.42 0,-21.42 -13.812,0 -13.812,21.42 0,21.42 z"
         inkscape:connector-curvature="0"
         style="fill:#ff00ff" />
      <path
         id="path14588"
         d="m 1371.4889,195.6559 c 13.812,0 13.812,-21.42 0,-21.42 -13.812,0 -13.813,21.42 0,21.42 z"
         inkscape:connector-curvature="0"
         style="fill:#ff00ff" />
      <path
         id="path14590"
         d="m 1493.8889,197.1849 c -13.812,0 -13.812,21.42 0,21.42 13.812,0 13.813,-21.42 0,-21.42 z"
         inkscape:connector-curvature="0"
         style="fill:#ff00ff" />
      <path
         id="path14592"
         d="m 1289.9769,452.4629 38.791,-58.853 c 1.791,-2.714 2.742,-5.894 2.742,-9.143 l 0,-23.828 0,-2.791 0,-11.579 0,-33.739 0,-45.328 c 0,-0.407 -0.031,-0.808 -0.061,-1.208 -0.621,-8.611 -7.789,-15.41 -16.562,-15.41 -9.18,0 -16.617,7.442 -16.617,16.619 l 0,17.191 0,32.629 0,24.749 0,18.865 0,18.844 -8.08,12.255 -17.746,26.931 -40.063,0 -3.666,0 -22.506,0 -27.775,-29.321 5.508,-22.947 2.161,-9 c 0.01,-0.031 0.01,-0.064 0.018,-0.095 0.101,-0.438 0.181,-0.875 0.245,-1.31 0.021,-0.217 0.058,-0.428 0.083,-0.646 0.214,-1.906 0.089,-3.788 -0.331,-5.584 -0.397,-1.705 -1.049,-3.332 -1.943,-4.816 -2.219,-3.681 -5.848,-6.508 -10.355,-7.592 -0.107,-0.024 -0.211,-0.034 -0.318,-0.058 -1.203,-0.266 -2.402,-0.41 -3.586,-0.41 -0.064,0 -0.125,0.016 -0.189,0.016 -7.427,0.085 -14.134,5.18 -15.946,12.729 l -0.701,2.922 -1.083,4.516 -7.986,33.278 c -1.313,5.468 0.229,11.23 4.094,15.312 l 23.014,24.297 7.895,8.335 23.5,24.811 0,0.021 0,56.689 -2.172,2.653 -18.238,22.289 -34.798,42.537 c -5.566,6.809 -4.872,16.771 1.591,22.741 l 42.344,39.089 c 3.195,2.95 7.237,4.406 11.267,4.406 4.477,0 8.941,-1.799 12.215,-5.346 6.227,-6.747 5.805,-17.258 -0.939,-23.488 l -30.839,-28.468 28.015,-34.234 40.079,0 0,114.009 c 0,9.177 7.443,16.619 16.619,16.619 9.178,0 16.619,-7.442 16.619,-16.619 l 0,-138.44 c 0,-1.129 -0.119,-2.233 -0.334,-3.299 l 0,-72.641 6.034,-9.159 z"
         inkscape:connector-curvature="0"
         style="fill:#ffd42a" />
      <path
         id="path14594"
         d="m 1202.4819,370.2309 c 2.543,10.643 9.489,19.569 18.844,24.701 3.403,1.866 7.124,3.222 11.056,3.984 2.381,0.462 4.832,0.722 7.344,0.722 15.055,0 28.045,-8.703 34.314,-21.331 1.463,-2.947 2.59,-6.089 3.256,-9.407 0.494,-2.454 0.76,-4.994 0.76,-7.595 0,-2.996 -0.379,-5.896 -1.029,-8.693 -2.02,-8.7 -6.99,-16.249 -13.818,-21.555 -1.225,-0.952 -2.51,-1.824 -3.844,-2.623 -2.322,-1.389 -4.795,-2.549 -7.402,-3.427 -3.258,-1.099 -6.713,-1.753 -10.296,-1.934 -0.646,-0.034 -1.285,-0.098 -1.94,-0.098 -5.568,0 -10.847,1.215 -15.621,3.351 -1.625,0.725 -3.179,1.57 -4.676,2.506 -9.706,6.08 -16.505,16.355 -17.8,28.308 -0.024,0.217 -0.027,0.434 -0.058,0.651 -0.095,1.031 -0.147,2.075 -0.159,3.127 0,0.128 -0.019,0.254 -0.019,0.386 0,1.239 0.071,2.46 0.187,3.669 0.17,1.797 0.491,3.545 0.901,5.258 z"
         inkscape:connector-curvature="0"
         style="fill:#ffd42a" />
      <g
         transform="matrix(6.107232,0,0,6.107232,644.90381,-657.56733)"
         id="g14711">
        <path
           inkscape:connector-curvature="0"
           style="fill:#c03a2b"
           d="m 24.85,10.126 c 2.018,-4.783 6.628,-8.125 11.99,-8.125 7.223,0 12.425,6.179 13.079,13.543 0,0 0.353,1.828 -0.424,5.119 -1.058,4.482 -3.545,8.464 -6.898,11.503 L 24.85,48 7.402,32.165 C 4.049,29.127 1.562,25.144 0.504,20.662 -0.273,17.371 0.08,15.543 0.08,15.543 0.734,8.179 5.936,2 13.159,2 c 5.363,0 9.673,3.343 11.691,8.126 z"
           id="path14671" />
        <path
           inkscape:connector-curvature="0"
           style="fill:#ed7161"
           d="m 6,18.078 c -0.553,0 -1,-0.447 -1,-1 0,-5.514 4.486,-10 10,-10 0.553,0 1,0.447 1,1 0,0.553 -0.447,1 -1,1 -4.411,0 -8,3.589 -8,8 0,0.553 -0.447,1 -1,1 z"
           id="path14673" />
        <g
           id="g14675" />
        <g
           id="g14677" />
        <g
           id="g14679" />
        <g
           id="g14681" />
        <g
           id="g14683" />
        <g
           id="g14685" />
        <g
           id="g14687" />
        <g
           id="g14689" />
        <g
           id="g14691" />
        <g
           id="g14693" />
        <g
           id="g14695" />
        <g
           id="g14697" />
        <g
           id="g14699" />
        <g
           id="g14701" />
        <g
           id="g14703" />
      </g>
      <g
         id="g14758"
         transform="matrix(6.107232,0,0,6.107232,326.06661,357.67743)">
        <path
           id="path14760"
           d="m 24.85,10.126 c 2.018,-4.783 6.628,-8.125 11.99,-8.125 7.223,0 12.425,6.179 13.079,13.543 0,0 0.353,1.828 -0.424,5.119 -1.058,4.482 -3.545,8.464 -6.898,11.503 L 24.85,48 7.402,32.165 C 4.049,29.127 1.562,25.144 0.504,20.662 -0.273,17.371 0.08,15.543 0.08,15.543 0.734,8.179 5.936,2 13.159,2 c 5.363,0 9.673,3.343 11.691,8.126 z"
           style="fill:#c03a2b"
           inkscape:connector-curvature="0" />
        <path
           id="path14762"
           d="m 6,18.078 c -0.553,0 -1,-0.447 -1,-1 0,-5.514 4.486,-10 10,-10 0.553,0 1,0.447 1,1 0,0.553 -0.447,1 -1,1 -4.411,0 -8,3.589 -8,8 0,0.553 -0.447,1 -1,1 z"
           style="fill:#ed7161"
           inkscape:connector-curvature="0" />
        <g
           id="g14764" />
        <g
           id="g14766" />
        <g
           id="g14768" />
        <g
           id="g14770" />
        <g
           id="g14772" />
        <g
           id="g14774" />
        <g
           id="g14776" />
        <g
           id="g14778" />
        <g
           id="g14780" />
        <g
           id="g14782" />
        <g
           id="g14784" />
        <g
           id="g14786" />
        <g
           id="g14788" />
        <g
           id="g14790" />
        <g
           id="g14792" />
      </g>
      <g
         transform="matrix(6.107232,0,0,6.107232,1836.3481,248.60155)"
         id="g14794">
        <path
           inkscape:connector-curvature="0"
           style="fill:#c03a2b"
           d="m 24.85,10.126 c 2.018,-4.783 6.628,-8.125 11.99,-8.125 7.223,0 12.425,6.179 13.079,13.543 0,0 0.353,1.828 -0.424,5.119 -1.058,4.482 -3.545,8.464 -6.898,11.503 L 24.85,48 7.402,32.165 C 4.049,29.127 1.562,25.144 0.504,20.662 -0.273,17.371 0.08,15.543 0.08,15.543 0.734,8.179 5.936,2 13.159,2 c 5.363,0 9.673,3.343 11.691,8.126 z"
           id="path14796" />
        <path
           inkscape:connector-curvature="0"
           style="fill:#ed7161"
           d="m 6,18.078 c -0.553,0 -1,-0.447 -1,-1 0,-5.514 4.486,-10 10,-10 0.553,0 1,0.447 1,1 0,0.553 -0.447,1 -1,1 -4.411,0 -8,3.589 -8,8 0,0.553 -0.447,1 -1,1 z"
           id="path14798" />
        <g
           id="g14800" />
        <g
           id="g14802" />
        <g
           id="g14804" />
        <g
           id="g14806" />
        <g
           id="g14808" />
        <g
           id="g14810" />
        <g
           id="g14812" />
        <g
           id="g14814" />
        <g
           id="g14816" />
        <g
           id="g14818" />
        <g
           id="g14820" />
        <g
           id="g14822" />
        <g
           id="g14824" />
        <g
           id="g14826" />
        <g
           id="g14828" />
      </g>
    </g>
  </g>
</svg>
