<?xml version="1.0" encoding="UTF-8" standalone="no"?>
<!-- Created with Inkscape (http://www.inkscape.org/) -->

<svg
   xmlns:dc="http://purl.org/dc/elements/1.1/"
   xmlns:cc="http://creativecommons.org/ns#"
   xmlns:rdf="http://www.w3.org/1999/02/22-rdf-syntax-ns#"
   xmlns:svg="http://www.w3.org/2000/svg"
   xmlns="http://www.w3.org/2000/svg"
   xmlns:sodipodi="http://sodipodi.sourceforge.net/DTD/sodipodi-0.dtd"
   xmlns:inkscape="http://www.inkscape.org/namespaces/inkscape"
   id="svg3371"
   version="1.1"
   inkscape:version="0.91 r13725"
   xml:space="preserve"
   width="1000"
   height="250"
   viewBox="0 0 1000 249.99999"
   sodipodi:docname="2017-banner.svg"
   inkscape:export-filename="/Users/thoward/github/dotnetfringe/dotnetfringe.github.io/images/vector/2017-banner.png"
   inkscape:export-xdpi="135"
   inkscape:export-ydpi="135"><metadata
     id="metadata3377"><rdf:RDF><cc:Work
         rdf:about=""><dc:format>image/svg+xml</dc:format><dc:type
           rdf:resource="http://purl.org/dc/dcmitype/StillImage" /><dc:title /></cc:Work></rdf:RDF></metadata><defs
     id="defs3375" /><sodipodi:namedview
     pagecolor="#ffffff"
     bordercolor="#666666"
     borderopacity="1"
     objecttolerance="10"
     gridtolerance="10"
     guidetolerance="10"
     inkscape:pageopacity="0"
     inkscape:pageshadow="2"
     inkscape:window-width="1172"
     inkscape:window-height="574"
     id="namedview3373"
     showgrid="false"
     inkscape:zoom="0.51599765"
     inkscape:cx="160.13343"
     inkscape:cy="148.66473"
     inkscape:window-x="0"
     inkscape:window-y="0"
     inkscape:window-maximized="0"
     inkscape:current-layer="g3379" /><g
     id="g3379"
     inkscape:groupmode="layer"
     inkscape:label="2017-sticker"
     transform="matrix(1.25,0,0,-1.25,0,250.00001)"><rect
       style="opacity:1;fill:#000000;fill-opacity:1;stroke:none;stroke-width:5.48799992;stroke-miterlimit:10;stroke-dasharray:none;stroke-dashoffset:0;stroke-opacity:1"
       id="rect3425"
       width="800"
       height="200"
       x="0"
       y="-200.00002"
       transform="scale(1,-1)" /><g
       id="g3381"
       transform="matrix(0.84352105,0,0,0.84352105,278.53297,77.623621)"><path
         d="m 0,113.832 288,0 L 288,0 0,0 0,113.832 Z"
         style="fill:#000000;fill-opacity:1;fill-rule:nonzero;stroke:none"
         id="path3383"
         inkscape:connector-curvature="0" /><g
         id="g3385"
         transform="matrix(1,0,-0.272065,-0.86941,0,113.832)"><path
           d="m 28.613,68.284 0.003,-16.929 19.375,0 -0.003,16.929 -19.375,0 z"
           style="fill:none;stroke:#ffd700;stroke-width:2.2016139;stroke-linecap:butt;stroke-linejoin:miter;stroke-miterlimit:4;stroke-dasharray:none;stroke-opacity:1"
           id="path3387"
           inkscape:connector-curvature="0" /></g><g
         id="g3389"
         transform="matrix(1,0,-0.272065,-0.86941,0,113.832)"><path
           d="m 52.855,68.284 0.001,-57.025 19.391,0 13.07,21.621 1.187,0 0.009,-21.621 19.734,0 -0.001,57.025 -19.469,0 -12.916,-23.237 -1.281,0 -0.006,23.237 -19.719,0 z"
           style="fill:none;stroke:#ffd700;stroke-width:2.2016139;stroke-linecap:butt;stroke-linejoin:miter;stroke-miterlimit:4;stroke-dasharray:none;stroke-opacity:1"
           id="path3391"
           inkscape:connector-curvature="0" /></g><g
         id="g3393"
         transform="matrix(1,0,-0.272065,-0.86941,0,113.832)"><path
           d="m 111.101,68.284 0.001,-57.025 42.672,0 0.002,15.744 -22.953,0 -0.008,4.852 17.86,0 0.004,15.582 -17.859,0 -0.002,5.104 22.953,0 0.002,15.743 -42.672,0 z"
           style="fill:none;stroke:#ffd700;stroke-width:2.2016139;stroke-linecap:butt;stroke-linejoin:miter;stroke-miterlimit:4;stroke-dasharray:none;stroke-opacity:1"
           id="path3395"
           inkscape:connector-curvature="0" /></g><g
         id="g3397"
         transform="matrix(1,0,-0.272065,-0.86941,0,113.832)"><path
           d="m 158.189,27.344 -0.001,-16.085 42.5,0 0.001,16.085 -11.046,0 -0.003,40.94 -19.718,0 0.002,-40.94 -11.735,0 z"
           style="fill:none;stroke:#ffd700;stroke-width:2.2016139;stroke-linecap:butt;stroke-linejoin:miter;stroke-miterlimit:4;stroke-dasharray:none;stroke-opacity:1"
           id="path3399"
           inkscape:connector-curvature="0" /></g><g
         id="g3401"
         transform="matrix(1,0.232958,0.267949,-0.86941,0,113.832)"><path
           d="m 76.55,104.018 c -0.716,-0.74 -1.072,-1.437 -1.067,-2.083 -0.002,-0.647 0.191,-1.135 0.58,-1.462 0.392,-0.326 0.916,-0.635 1.576,-0.926 0.655,-0.3 1.347,-0.596 2.08,-0.88 0.731,-0.28 1.536,-0.545 2.415,-0.791 0.877,-0.241 1.616,-0.447 2.21,-0.612 1.752,-0.474 2.864,-0.715 3.335,-0.723 0.477,-0.003 0.716,0.083 0.711,0.262 0.005,0.172 -0.147,0.387 -0.456,0.651 -0.302,0.269 -0.452,0.418 -0.45,0.454 0.01,0.039 0.086,0.059 0.234,0.063 0.157,-0.003 0.36,-0.048 0.611,-0.124 8.36,-1.736 16.44,-2.604 24.243,-2.598 7.812,0 13.218,1.255 16.224,3.772 0.093,0.074 0.378,0.308 0.859,0.698 1.084,1.045 1.625,1.635 1.621,1.764 -0.001,0.386 -0.459,0.578 -1.375,0.584 -10.573,-0.003 -19.341,0.371 -26.302,1.129 -0.698,-0.007 -1.049,0.093 -1.048,0.295 0.008,0.087 0.161,0.232 0.463,0.429 0.298,0.202 0.449,0.498 0.448,0.893 -0.002,0.386 -0.275,0.749 -0.823,1.092 l -8.304,7.605 c -0.341,0.223 -0.514,0.402 -0.521,0.544 0.001,0.144 0.152,0.22 0.455,0.229 l 1.031,-0.119 c 2.017,-0.178 3.915,-0.263 5.693,-0.253 6.531,0.002 9.797,1.457 9.799,4.368 -0.005,0.206 -0.041,0.34 -0.108,0.403 -0.069,0.053 -0.633,0.118 -1.693,0.193 -1.06,0.066 -4.627,0.535 -10.705,1.409 -6.076,0.866 -9.591,1.447 -10.545,1.74 -0.947,0.298 -1.687,0.729 -2.221,1.291 -5.603,7.341 -8.758,11.897 -9.457,13.659 -0.031,0.001 -0.105,0.349 -0.215,1.039 -0.117,0.696 -0.218,1.047 -0.312,1.048 -0.388,0.004 -1.166,-0.375 -2.338,-1.129 -1.179,-0.761 -1.77,-1.445 -1.763,-2.054 0,-0.611 0.08,-1.201 0.24,-1.769 0.149,-0.558 0.343,-1.193 0.575,-1.913 0.234,-0.714 0.951,-2.104 2.148,-4.169 1.201,-2.059 2.695,-4.022 4.482,-5.88 0.075,-0.002 0.115,-0.077 0.121,-0.219 0.002,-0.152 -0.261,-0.717 -0.783,-1.683 -0.527,-0.977 -0.791,-1.551 -0.789,-1.721 0.007,-0.87 0.316,-1.426 0.928,-1.657 0.619,-0.238 2.419,-0.628 5.404,-1.158 l 0.858,-0.111 0.063,-0.001 c 0.352,-10e-4 1.024,-0.499 2.01,-1.493 6.746,-5.979 10.712,-9.278 11.901,-9.895 0.431,-0.208 0.64,-0.376 0.637,-0.512 0.003,-0.129 -0.131,-0.197 -0.4,-0.197 -0.262,0.002 -0.476,0.026 -0.642,0.062 -7.398,1.05 -13.602,1.576 -18.609,1.573 -1.301,0.002 -2.31,-0.372 -3.029,-1.117 z"
           style="fill:#ff1493;fill-opacity:1;fill-rule:nonzero;stroke:#ff1493;stroke-width:1.14563704;stroke-linecap:butt;stroke-linejoin:miter;stroke-miterlimit:4;stroke-dasharray:none;stroke-opacity:1"
           id="path3403"
           inkscape:connector-curvature="0" /></g><g
         id="g3405"
         transform="matrix(1,0.232958,0.267949,-0.86941,0,113.832)"><path
           d="m 107.067,122.821 c 2.379,-1.649 4.876,-3.429 7.494,-5.342 -1.381,-0.955 -2.271,-1.89 -2.672,-2.801 -0.139,-0.298 -0.206,-0.514 -0.201,-0.647 0,-0.863 0.282,-1.434 0.849,-1.713 0.564,-0.281 1.477,-0.423 2.742,-0.434 0.473,0.01 1.887,0.595 4.23,1.763 2.344,1.167 3.831,1.754 4.468,1.754 0.635,-0.01 1.521,-0.195 2.651,-0.566 1.13,-0.367 2.028,-0.553 2.696,-0.554 0.675,0.002 1.164,0.16 1.469,0.466 1.092,1.434 1.64,2.304 1.643,2.615 0.001,0.301 -0.139,0.547 -0.415,0.733 -0.282,0.19 -1.178,0.808 -2.684,1.851 -1.496,1.037 -2.965,2.099 -4.401,3.188 -1.44,1.088 -2.789,2.304 -4.054,3.641 -1.265,1.341 -1.898,2.42 -1.901,3.246 0.003,0.136 0.122,0.204 0.352,0.202 2.342,0.008 10.256,-4.746 23.741,-14.252 0.301,0 0.45,0.273 0.452,0.822 0,0.539 -1.719,2.406 -5.155,5.592 -3.44,3.189 -7.324,6.313 -11.651,9.368 -4.328,3.046 -7.471,4.572 -9.428,4.573 -3.044,0.002 -4.563,-1.515 -4.563,-4.547 0.005,-1.652 0.558,-3.248 1.657,-4.786 1.107,-1.537 3.448,-3.596 7.018,-6.189 -0.744,0.007 -1.745,-0.18 -3.008,-0.554 -1.255,-0.373 -2.053,-0.82 -2.39,-1.342 -1.143,1.001 -3.106,2.668 -5.887,5.001 -0.653,0.485 -1.5,0.73 -2.542,0.738 -1.039,0 -1.557,-0.165 -1.556,-0.489 -0.007,-0.325 0.343,-0.77 1.046,-1.337 z"
           style="fill:#ff1493;fill-opacity:1;fill-rule:nonzero;stroke:#ff1493;stroke-width:1.14563704;stroke-linecap:butt;stroke-linejoin:miter;stroke-miterlimit:4;stroke-dasharray:none;stroke-opacity:1"
           id="path3407"
           inkscape:connector-curvature="0" /></g><g
         id="g3409"
         transform="matrix(1,0.232958,0.267949,-0.86941,0,113.832)"><path
           d="m 154.646,102.802 c 0.437,10e-4 0.72,0.081 0.855,0.248 0.617,0.731 0.92,1.32 0.916,1.773 0.002,0.458 -0.129,0.846 -0.392,1.171 -0.267,0.324 -0.585,0.696 -0.954,1.11 -0.359,0.407 -1.097,0.973 -2.203,1.692 -1.108,0.709 -2.187,1.063 -3.236,1.056 -0.794,-0.114 -1.187,-0.588 -1.184,-1.414 0.005,-1.301 0.785,-2.566 2.344,-3.793 1.558,-1.236 2.843,-1.848 3.854,-1.843 z m -15.643,25.607 c -0.36,0.6 -0.54,1.14 -0.542,1.615 0.004,0.482 0.268,0.719 0.792,0.716 0.301,0 0.821,-0.131 1.558,-0.391 8.144,-4.239 16.105,-9.24 23.881,-15.006 0.389,0.297 0.579,0.667 0.578,1.107 0.009,0.434 -0.207,0.844 -0.642,1.23 -0.428,0.389 -1.048,0.95 -1.856,1.677 -0.802,0.734 -2.339,2.052 -4.608,3.96 -2.261,1.91 -4.364,3.647 -6.302,5.212 -5.137,4.123 -8.928,6.553 -11.375,7.286 -0.787,0.212 -1.639,0.316 -2.555,0.322 -3.344,0.003 -5.016,-1.775 -5.008,-5.332 -0.007,-1.376 0.752,-3.361 2.266,-5.952 1.525,-2.584 3.092,-4.86 4.705,-6.827 1.619,-1.961 2.685,-3.055 3.205,-3.275 0.785,-0.481 1.631,-0.722 2.537,-0.722 0.916,-0.006 1.791,0.17 2.626,0.524 0.254,0.131 0.38,0.3 0.377,0.515 0.005,0.217 -0.205,0.547 -0.622,0.983 -0.412,0.442 -1.042,1.118 -1.888,2.028 -0.836,0.904 -2.095,2.472 -3.776,4.704 -1.681,2.222 -2.797,4.098 -3.351,5.626 z"
           style="fill:#ff1493;fill-opacity:1;fill-rule:nonzero;stroke:#ff1493;stroke-width:1.14563704;stroke-linecap:butt;stroke-linejoin:miter;stroke-miterlimit:4;stroke-dasharray:none;stroke-opacity:1"
           id="path3411"
           inkscape:connector-curvature="0" /></g><g
         id="g3413"
         transform="matrix(1,0.232958,0.267949,-0.86941,0,113.832)"><path
           d="m 165.718,113.452 c 0.351,0 0.93,0.173 1.736,0.519 0.801,0.35 1.202,0.731 1.207,1.15 -0.002,0.314 -0.103,0.62 -0.31,0.924 l -4.908,6.772 c -0.571,0.687 -0.859,1.077 -0.861,1.171 0.008,0.088 0.035,0.131 0.09,0.132 l 0.305,-0.206 c 5.042,-3.51 9.204,-6.591 12.475,-9.237 0.605,-0.436 1.113,-0.655 1.519,-0.654 0.413,0.003 0.689,0.055 0.82,0.148 l 1.832,0.509 c 0.44,0.226 0.659,0.514 0.66,0.86 0.004,0.338 -0.086,0.615 -0.268,0.827 -0.829,0.905 -1.768,1.934 -2.828,3.088 -1.059,1.154 -1.853,2.019 -2.383,2.596 -0.522,0.579 -1.11,1.244 -1.767,1.989 -0.65,0.751 -1.119,1.318 -1.41,1.707 -0.283,0.382 -0.596,0.824 -0.95,1.327 -0.344,0.496 -0.582,0.918 -0.714,1.264 -0.262,1.008 -0.39,1.882 -0.386,2.61 -0.002,0.386 0.251,0.58 0.751,0.579 0.502,-0.009 1.415,-0.312 2.746,-0.918 1.325,-0.601 2.913,-1.528 4.762,-2.785 1.847,-1.266 4.303,-3.057 7.362,-5.378 3.066,-2.315 5.757,-4.28 8.063,-5.891 0.384,0.319 0.573,0.693 0.574,1.124 0.009,0.434 -0.181,0.823 -0.561,1.162 -1.405,1.349 -3.172,3.032 -5.306,5.048 -2.127,2.018 -5.374,4.72 -9.748,8.099 -4.372,3.371 -7.425,5.056 -9.153,5.06 -3.355,0 -5.035,-1.78 -5.038,-5.339 0.003,-1.339 0.524,-2.744 1.567,-4.217 l 2.808,-3.831 c 0.263,-0.397 0.39,-0.623 0.387,-0.687 0.007,-0.07 -0.124,0.012 -0.391,0.237 -7.568,6.275 -12.394,9.956 -14.474,11.038 -0.352,0.221 -0.79,0.328 -1.322,0.329 -1.427,0.004 -2.14,-0.645 -2.137,-1.938 0.005,-0.44 0.11,-0.834 0.315,-1.174 3.218,-2.957 5.477,-5.367 6.779,-7.224 1.05,-1.048 2.153,-2.496 3.305,-4.344 1.153,-1.856 2.131,-3.392 2.937,-4.605 0.804,-1.222 1.444,-1.832 1.915,-1.841 z"
           style="fill:#ff1493;fill-opacity:1;fill-rule:nonzero;stroke:#ff1493;stroke-width:1.14563704;stroke-linecap:butt;stroke-linejoin:miter;stroke-miterlimit:4;stroke-dasharray:none;stroke-opacity:1"
           id="path3415"
           inkscape:connector-curvature="0" /></g><g
         id="g3417"
         transform="matrix(1,0.232958,0.267949,-0.86941,0,113.832)"><path
           d="m 207.261,115.957 c 0.623,0.504 0.933,0.965 0.927,1.381 0.004,0.41 -0.179,0.787 -0.552,1.128 -0.363,0.334 -2.395,2.989 -6.102,7.962 -3.698,4.967 -6.183,8.38 -7.462,10.239 -1.28,1.859 -2.181,3.212 -2.697,4.058 -0.518,0.841 -1.593,2.345 -3.224,4.51 -1.633,2.159 -3.276,4.118 -4.932,5.867 -1.658,1.758 -3.654,3.447 -5.982,5.065 -2.319,1.629 -4.547,2.668 -6.679,3.117 -0.912,-0.007 -1.825,-0.202 -2.733,-0.589 -1.741,-0.731 -2.61,-2.096 -2.605,-4.095 -0.002,-2.516 2.357,-5.474 7.079,-8.868 4.716,-3.4 8.223,-5.102 10.524,-5.106 0.353,-0.004 0.532,0.057 0.531,0.178 0.003,0.132 -0.213,0.357 -0.649,0.671 -3.747,2.555 -7.15,5.314 -10.218,8.279 -3.067,2.975 -4.601,5.085 -4.603,6.333 0.006,0.181 0.138,0.271 0.397,0.268 0.262,-0.002 0.825,-0.282 1.693,-0.84 2.085,-1.481 5.046,-4.165 8.88,-8.063 4.223,-4.682 6.806,-7.674 7.749,-8.976 1.694,-2.287 3.723,-4.668 6.085,-7.14 l 1.306,-1.375 c 0.038,-0.071 0.103,-0.152 0.188,-0.237 0.088,-0.094 0.197,-0.253 0.329,-0.469 0.346,-0.564 0.5,-0.846 0.461,-0.847 -0.136,-10e-4 -0.426,0.218 -0.861,0.65 -0.43,0.437 -1.05,1.03 -1.854,1.785 -0.794,0.749 -2.155,1.759 -4.08,3.041 -1.918,1.283 -3.464,1.92 -4.64,1.92 -1.167,0.01 -2.078,-0.378 -2.735,-1.165 -0.656,-0.773 -0.981,-1.601 -0.973,-2.489 0.002,-0.898 0.566,-2.23 1.697,-4.002 1.126,-1.783 2.6,-3.711 4.426,-5.788 1.828,-2.084 4.19,-4.017 7.084,-5.793 2.901,-1.775 5.872,-2.834 8.915,-3.183 1.78,0.383 2.932,1.01 3.45,1.877 0.095,-0.046 0.271,-0.062 0.531,-0.055 0.258,-0.003 0.702,0.251 1.329,0.751 z m -20.247,13.751 c 1.124,-0.081 3.085,-1.119 5.882,-3.115 2.806,-2.002 5.352,-3.997 7.635,-5.987 2.293,-1.996 3.442,-3.149 3.444,-3.463 -0.004,-0.073 -0.097,-0.106 -0.283,-0.111 -2.261,0.463 -4.781,1.648 -7.564,3.562 -2.775,1.916 -5.036,3.764 -6.779,5.534 -1.738,1.777 -2.607,2.905 -2.609,3.381 0.002,0.135 0.094,0.2 0.274,0.199 z"
           style="fill:#ff1493;fill-opacity:1;fill-rule:nonzero;stroke:#ff1493;stroke-width:1.14563704;stroke-linecap:butt;stroke-linejoin:miter;stroke-miterlimit:4;stroke-dasharray:none;stroke-opacity:1"
           id="path3419"
           inkscape:connector-curvature="0" /></g><g
         id="g3421"
         transform="matrix(1,0.232958,0.267949,-0.86941,0,113.832)"><path
           d="m 223.82,115.33 c -1.128,0.013 -3.042,1.176 -5.734,3.496 -2.693,2.311 -4.041,3.725 -4.041,4.237 -0.007,0.097 0.06,0.142 0.196,0.143 0.945,10e-4 2.846,-1.058 5.697,-3.183 2.86,-2.131 4.291,-3.581 4.29,-4.35 -0.004,-0.216 -0.142,-0.33 -0.408,-0.343 z m -13.889,20.811 c -3.341,-0.01 -5.013,-2.049 -5.015,-6.125 -0.001,-2.561 1.115,-5.281 3.343,-8.162 2.239,-2.873 4.88,-5.234 7.928,-7.077 3.056,-1.841 5.755,-2.758 8.097,-2.755 1.042,-0.008 2.01,0.404 2.906,1.228 0.891,0.828 1.337,1.63 1.339,2.408 0,1.429 -1.019,3.047 -3.067,4.857 -2.045,1.802 -4.192,3.253 -6.432,4.351 -2.244,1.102 -3.724,1.653 -4.441,1.65 -0.712,0.002 -1.242,-0.324 -1.596,-0.985 -0.177,-0.128 -0.414,-0.192 -0.714,-0.191 -0.303,-0.01 -0.804,0.566 -1.507,1.716 -0.697,1.157 -1.045,2.093 -1.05,2.81 0.002,0.72 0.27,1.165 0.8,1.329 3.301,-0.001 6.887,-0.963 10.758,-2.886 3.88,-1.931 9.232,-5.327 16.057,-10.183 0.476,-0.349 1.205,-0.868 2.182,-1.554 0.986,-0.693 1.56,-1.101 1.719,-1.229 0.397,0.299 0.594,0.671 0.593,1.111 0.009,0.434 -0.188,0.821 -0.59,1.154 -2.166,2.165 -4.977,4.593 -8.436,7.283 -3.464,2.693 -7.432,5.242 -11.908,7.646 -4.478,2.395 -8.132,3.599 -10.966,3.604 z"
           style="fill:#ff1493;fill-opacity:1;fill-rule:nonzero;stroke:#ff1493;stroke-width:1.14563704;stroke-linecap:butt;stroke-linejoin:miter;stroke-miterlimit:4;stroke-dasharray:none;stroke-opacity:1"
           id="path3423"
           inkscape:connector-curvature="0" /></g></g></g></svg>