<?xml version="1.0" encoding="UTF-8" standalone="no"?>
<!-- Created with Inkscape (http://www.inkscape.org/) -->

<svg
   xmlns:dc="http://purl.org/dc/elements/1.1/"
   xmlns:cc="http://creativecommons.org/ns#"
   xmlns:rdf="http://www.w3.org/1999/02/22-rdf-syntax-ns#"
   xmlns:svg="http://www.w3.org/2000/svg"
   xmlns="http://www.w3.org/2000/svg"
   xmlns:xlink="http://www.w3.org/1999/xlink"
   xmlns:sodipodi="http://sodipodi.sourceforge.net/DTD/sodipodi-0.dtd"
   xmlns:inkscape="http://www.inkscape.org/namespaces/inkscape"
   id="svg6802"
   version="1.1"
   inkscape:version="0.48.2 r9819"
   width="765"
   height="990"
   xml:space="preserve"
   sodipodi:docname="conference-restroom.pdf"><metadata
     id="metadata6808"><rdf:RDF><cc:Work
         rdf:about=""><dc:format>image/svg+xml</dc:format><dc:type
           rdf:resource="http://purl.org/dc/dcmitype/StillImage" /><dc:title></dc:title></cc:Work></rdf:RDF></metadata><defs
     id="defs6806"><linearGradient
       gradientTransform="matrix(2.9529764,0,0,0.53395738,-8.6687301e-6,-301.08128)"
       y2="885.91235"
       x2="282.99054"
       y1="706.8573"
       x1="-16.277725"
       gradientUnits="userSpaceOnUse"
       id="linearGradient6003"
       xlink:href="#linearGradient6895"
       inkscape:collect="always" /><linearGradient
       id="linearGradient6895"><stop
         id="stop6905"
         offset="0"
         style="stop-color:#bd00ff;stop-opacity:1;" /><stop
         style="stop-color:#d817b2;stop-opacity:1;"
         offset="0.05894568"
         id="stop6925" /><stop
         style="stop-color:#f32f65;stop-opacity:1;"
         offset="0.15170668"
         id="stop6923" /><stop
         style="stop-color:#e85f0b;stop-opacity:1;"
         offset="0.24061349"
         id="stop6921" /><stop
         style="stop-color:#d2be10;stop-opacity:1;"
         offset="0.34113494"
         id="stop6919" /><stop
         style="stop-color:#a6f120;stop-opacity:1;"
         offset="0.46005493"
         id="stop6917" /><stop
         style="stop-color:#4deb40;stop-opacity:1;"
         offset="0.60127968"
         id="stop6915" /><stop
         style="stop-color:#00d880;stop-opacity:1;"
         offset="0.71948338"
         id="stop6913" /><stop
         style="stop-color:#00b1e3;stop-opacity:1;"
         offset="0.83512175"
         id="stop6911" /><stop
         style="stop-color:#0063ff;stop-opacity:1;"
         offset="1"
         id="stop6909" /></linearGradient><linearGradient
       inkscape:collect="always"
       id="linearGradient3971"><stop
         style="stop-color:#00a3d8;stop-opacity:1;"
         offset="0"
         id="stop3973" /><stop
         style="stop-color:#00a3d8;stop-opacity:0;"
         offset="1"
         id="stop3975" /></linearGradient><inkscape:perspective
       sodipodi:type="inkscape:persp3d"
       inkscape:vp_x="0 : 526.18109 : 1"
       inkscape:vp_y="0 : 1000 : 0"
       inkscape:vp_z="744.09448 : 526.18109 : 1"
       inkscape:persp3d-origin="372.04724 : 350.78739 : 1"
       id="perspective10-8" /><inkscape:perspective
       id="perspective2447-7"
       inkscape:persp3d-origin="372.04724 : 350.78739 : 1"
       inkscape:vp_z="744.09448 : 526.18109 : 1"
       inkscape:vp_y="0 : 1000 : 0"
       inkscape:vp_x="0 : 526.18109 : 1"
       sodipodi:type="inkscape:persp3d" /><clipPath
       clipPathUnits="userSpaceOnUse"
       id="clipPath3963"><rect
         style="fill:none;stroke:#0000ff;stroke-width:1;stroke-miterlimit:4;stroke-opacity:1;stroke-dasharray:none;stroke-dashoffset:0"
         id="rect3965"
         width="250.38188"
         height="123.74085"
         x="5.8003526"
         y="922.81854" /></clipPath><linearGradient
       inkscape:collect="always"
       xlink:href="#linearGradient3971"
       id="linearGradient3977"
       x1="15.467607"
       y1="-2.4227307"
       x2="16.434376"
       y2="47.846981"
       gradientUnits="userSpaceOnUse" /><inkscape:perspective
       sodipodi:type="inkscape:persp3d"
       inkscape:vp_x="0 : 526.18109 : 1"
       inkscape:vp_y="0 : 1000 : 0"
       inkscape:vp_z="744.09448 : 526.18109 : 1"
       inkscape:persp3d-origin="372.04724 : 350.78739 : 1"
       id="perspective10-1" /><inkscape:perspective
       id="perspective2447-0"
       inkscape:persp3d-origin="372.04724 : 350.78739 : 1"
       inkscape:vp_z="744.09448 : 526.18109 : 1"
       inkscape:vp_y="0 : 1000 : 0"
       inkscape:vp_x="0 : 526.18109 : 1"
       sodipodi:type="inkscape:persp3d" /><inkscape:perspective
       sodipodi:type="inkscape:persp3d"
       inkscape:vp_x="0 : 526.18109 : 1"
       inkscape:vp_y="0 : 1000 : 0"
       inkscape:vp_z="744.09448 : 526.18109 : 1"
       inkscape:persp3d-origin="372.04724 : 350.78739 : 1"
       id="perspective2447" /><inkscape:perspective
       id="perspective10"
       inkscape:persp3d-origin="372.04724 : 350.78739 : 1"
       inkscape:vp_z="744.09448 : 526.18109 : 1"
       inkscape:vp_y="0 : 1000 : 0"
       inkscape:vp_x="0 : 526.18109 : 1"
       sodipodi:type="inkscape:persp3d" /><linearGradient
       inkscape:collect="always"
       xlink:href="#linearGradient6895"
       id="linearGradient7536"
       gradientUnits="userSpaceOnUse"
       gradientTransform="matrix(2.3623811,0,0,0.4271659,-2.88526e-5,-1082.7547)"
       x1="-16.277725"
       y1="706.8573"
       x2="282.99054"
       y2="885.91235" /></defs><sodipodi:namedview
     pagecolor="#ffffff"
     bordercolor="#666666"
     borderopacity="1"
     objecttolerance="10"
     gridtolerance="10"
     guidetolerance="10"
     inkscape:pageopacity="0"
     inkscape:pageshadow="2"
     inkscape:window-width="841"
     inkscape:window-height="639"
     id="namedview6804"
     showgrid="false"
     inkscape:zoom="0.2053267"
     inkscape:cx="-228.72103"
     inkscape:cy="495"
     inkscape:window-x="219"
     inkscape:window-y="2"
     inkscape:window-maximized="0"
     inkscape:current-layer="g6810" /><g
     id="g6810"
     inkscape:groupmode="layer"
     inkscape:label="conference-restroom"
     transform="matrix(1.25,0,0,-1.25,0,990)"><path
       inkscape:connector-curvature="0"
       id="path6844"
       style="fill:#000000;fill-opacity:1;fill-rule:nonzero;stroke:none"
       d="M 110.277,590.125 C 113.762,590.125 117.121,590.906 120.184,592.469 121.012,592.828 121.793,593.312 122.574,593.781 L 118.684,599.609 C 118.199,599.312 117.652,598.938 117.059,598.703 114.965,597.625 112.684,597.078 110.277,597.078 106.199,597.078 102.355,598.703 99.48,601.578 96.59,604.469 94.98,608.312 94.98,612.391 94.98,616.469 96.59,620.312 99.48,623.188 102.355,626.062 106.199,627.688 110.277,627.688 112.621,627.688 114.84,627.141 116.871,626.188 L 119.934,632.484 C 116.934,633.922 113.637,634.641 110.277,634.641 107.277,634.641 104.34,634.047 101.637,632.906 98.934,631.766 96.59,630.203 94.559,628.109 92.512,626.062 90.902,623.719 89.762,621.078 88.621,618.328 88.012,615.391 88.012,612.391 88.012,609.391 88.621,606.438 89.762,603.75 90.902,601.047 92.512,598.703 94.559,596.672 96.59,594.625 98.934,593 101.637,591.859 104.34,590.719 107.277,590.125 110.277,590.125 z M 161.414,634.641 154.445,634.641 154.445,615.625 136.695,615.625 136.695,634.641 129.727,634.641 129.727,590.125 136.695,590.125 136.695,609.328 154.445,609.328 154.445,590.125 161.414,590.125 161.414,634.641 z M 192.121,590.125 C 195.121,590.125 198.059,590.719 200.824,591.859 203.465,593 205.793,594.625 207.902,596.672 209.934,598.703 211.496,601.047 212.637,603.75 213.777,606.438 214.387,609.391 214.387,612.391 214.387,615.391 213.777,618.328 212.637,621.078 211.496,623.719 209.934,626.062 207.902,628.172 205.793,630.203 203.465,631.766 200.824,632.906 198.059,634.047 195.121,634.641 192.121,634.641 189.121,634.641 186.184,634.047 183.48,632.906 180.777,631.766 178.434,630.203 176.402,628.172 174.355,626.062 172.746,623.719 171.605,621.078 170.465,618.328 169.855,615.391 169.855,612.391 169.855,609.391 170.465,606.438 171.605,603.75 172.746,601.047 174.355,598.703 176.402,596.672 178.434,594.625 180.777,593 183.48,591.859 186.184,590.719 189.121,590.125 192.121,590.125 z M 192.121,627.688 C 196.199,627.688 200.043,626.062 202.918,623.188 205.793,620.312 207.418,616.469 207.418,612.391 207.418,608.312 205.793,604.469 202.918,601.578 200.043,598.703 196.199,597.078 192.121,597.078 188.043,597.078 184.199,598.703 181.324,601.578 178.434,604.469 176.824,608.312 176.824,612.391 176.824,616.469 178.434,620.312 181.324,623.188 184.199,626.062 188.043,627.688 192.121,627.688 z M 243.191,590.125 C 246.191,590.125 249.129,590.719 251.895,591.859 254.535,593 256.863,594.625 258.973,596.672 261.004,598.703 262.566,601.047 263.707,603.75 264.848,606.438 265.457,609.391 265.457,612.391 265.457,615.391 264.848,618.328 263.707,621.078 262.566,623.719 261.004,626.062 258.973,628.172 256.863,630.203 254.535,631.766 251.895,632.906 249.129,634.047 246.191,634.641 243.191,634.641 240.191,634.641 237.254,634.047 234.551,632.906 231.848,631.766 229.504,630.203 227.473,628.172 225.426,626.062 223.816,623.719 222.676,621.078 221.535,618.328 220.926,615.391 220.926,612.391 220.926,609.391 221.535,606.438 222.676,603.75 223.816,601.047 225.426,598.703 227.473,596.672 229.504,594.625 231.848,593 234.551,591.859 237.254,590.719 240.191,590.125 243.191,590.125 z M 243.191,627.688 C 247.27,627.688 251.113,626.062 253.988,623.188 256.863,620.312 258.488,616.469 258.488,612.391 258.488,608.312 256.863,604.469 253.988,601.578 251.113,598.703 247.27,597.078 243.191,597.078 239.113,597.078 235.27,598.703 232.395,601.578 229.504,604.469 227.895,608.312 227.895,612.391 227.895,616.469 229.504,620.312 232.395,623.188 235.27,626.062 239.113,627.688 243.191,627.688 z M 286.219,590.125 C 289.703,590.125 292.938,591.078 295.703,592.891 298.047,594.438 299.844,596.547 300.984,599 302.125,601.531 302.422,604.219 301.828,606.812 301.172,609.5 299.547,611.844 297.141,613.641 294.688,615.5 291.438,616.641 287.547,617.125 283.469,617.609 280.766,619.344 280.047,621.812 279.812,622.641 279.859,623.609 280.172,624.5 280.531,625.406 281.125,626.25 281.906,626.844 282.922,627.625 284.312,628.047 285.812,628.047 287.781,628.047 290,627.328 292.344,626 L 295.641,631.641 C 292.281,633.625 288.984,634.641 285.812,634.641 285.812,634.641 285.812,634.641 285.812,634.641 282.812,634.641 280.109,633.75 277.891,632.062 276.078,630.688 274.703,628.828 273.984,626.672 273.203,624.5 273.078,622.219 273.688,620.062 274.344,617.609 275.906,615.438 278.062,613.766 280.344,612.078 283.281,611 286.766,610.578 291.562,609.984 294.75,608.062 295.406,605.25 295.938,602.844 294.625,600.078 292.047,598.406 290.125,597.141 287.719,596.547 285.078,596.781 281.719,597.078 278.25,598.531 274.578,601.172 L 270.688,595.891 C 275.312,592.469 279.984,590.609 284.547,590.188 285.078,590.188 285.688,590.125 286.219,590.125 z M 316.262,628.406 335.996,628.406 335.996,634.641 309.293,634.641 309.293,590.125 335.996,590.125 335.996,596.422 316.262,596.422 316.262,610.219 332.512,610.219 332.512,616.531 316.262,616.531 316.262,628.406 z M 395.512,634.641 388.074,634.641 376.434,618.812 364.793,634.641 357.293,634.641 372.949,613.406 372.949,590.125 379.918,590.125 379.918,613.406 395.512,634.641 z M 420.16,590.125 C 423.16,590.125 426.098,590.719 428.863,591.859 431.504,593 433.832,594.625 435.941,596.672 437.973,598.703 439.535,601.047 440.676,603.75 441.816,606.438 442.426,609.391 442.426,612.391 442.426,615.391 441.816,618.328 440.676,621.078 439.535,623.719 437.973,626.062 435.941,628.172 433.832,630.203 431.504,631.766 428.863,632.906 426.098,634.047 423.16,634.641 420.16,634.641 417.16,634.641 414.223,634.047 411.52,632.906 408.816,631.766 406.473,630.203 404.441,628.172 402.395,626.062 400.785,623.719 399.645,621.078 398.504,618.328 397.895,615.391 397.895,612.391 397.895,609.391 398.504,606.438 399.645,603.75 400.785,601.047 402.395,598.703 404.441,596.672 406.473,594.625 408.816,593 411.52,591.859 414.223,590.719 417.16,590.125 420.16,590.125 z M 420.16,627.688 C 424.238,627.688 428.082,626.062 430.957,623.188 433.832,620.312 435.457,616.469 435.457,612.391 435.457,608.312 433.832,604.469 430.957,601.578 428.082,598.703 424.238,597.078 420.16,597.078 416.082,597.078 412.238,598.703 409.363,601.578 406.473,604.469 404.863,608.312 404.863,612.391 404.863,616.469 406.473,620.312 409.363,623.188 412.238,626.062 416.082,627.688 420.16,627.688 z M 466.609,590.125 C 470.812,590.125 474.719,591.391 477.656,593.672 479.328,594.984 480.656,596.609 481.609,598.469 482.578,600.5 483.109,602.781 483.109,605.25 L 483.109,634.641 476.094,634.641 476.094,605.25 C 476.094,602.609 475.188,600.562 473.391,599.188 471.656,597.859 469.188,597.078 466.609,597.078 463.969,597.078 461.516,597.859 459.828,599.188 458.031,600.562 457.078,602.609 457.078,605.25 L 457.078,634.641 450.109,634.641 450.109,605.25 C 450.109,602.781 450.594,600.5 451.609,598.469 452.516,596.609 453.828,594.984 455.578,593.672 458.516,591.391 462.406,590.125 466.609,590.125 z M 511.73,606.203 C 514.137,607.047 515.809,608.422 516.887,609.625 519.23,612.203 520.496,615.812 520.496,619.891 520.496,624.031 519.23,627.625 516.887,630.203 515.09,632.25 511.668,634.641 505.793,634.641 L 492.59,634.641 492.59,590.125 499.559,590.125 499.559,605.188 504.652,605.188 515.871,590.125 523.73,590.125 511.73,606.203 z M 499.559,611.422 499.559,628.344 505.793,628.344 C 508.668,628.344 510.84,627.562 512.215,626 513.887,624.203 514.199,621.688 514.199,619.891 514.199,618.141 513.887,615.625 512.215,613.828 510.84,612.266 508.668,611.422 505.793,611.422 L 499.559,611.422 z" /><path
       inkscape:connector-curvature="0"
       id="path6846"
       style="fill:#000000;fill-opacity:1;fill-rule:nonzero;stroke:none"
       d="M 73.645,515.125 C 76.645,515.125 79.582,515.719 82.348,516.859 84.988,518 87.316,519.625 89.426,521.672 91.457,523.703 93.02,526.047 94.16,528.75 95.301,531.438 95.91,534.391 95.91,537.391 95.91,540.391 95.301,543.328 94.16,546.078 93.02,548.719 91.457,551.062 89.426,553.172 87.316,555.203 84.988,556.766 82.348,557.906 79.582,559.047 76.645,559.641 73.645,559.641 70.645,559.641 67.707,559.047 65.004,557.906 62.301,556.766 59.957,555.203 57.926,553.172 55.879,551.062 54.27,548.719 53.129,546.078 51.988,543.328 51.379,540.391 51.379,537.391 51.379,534.391 51.988,531.438 53.129,528.75 54.27,526.047 55.879,523.703 57.926,521.672 59.957,519.625 62.301,518 65.004,516.859 67.707,515.719 70.645,515.125 73.645,515.125 z M 73.645,552.688 C 77.723,552.688 81.566,551.062 84.441,548.188 87.316,545.312 88.941,541.469 88.941,537.391 88.941,533.312 87.316,529.469 84.441,526.578 81.566,523.703 77.723,522.078 73.645,522.078 69.566,522.078 65.723,523.703 62.848,526.578 59.957,529.469 58.348,533.312 58.348,537.391 58.348,541.469 59.957,545.312 62.848,548.188 65.723,551.062 69.566,552.688 73.645,552.688 z M 160.953,559.641 153.344,559.641 141.641,532.344 134.078,550.047 130.297,558.812 126.516,549.922 118.953,532.344 107.266,559.641 99.578,559.641 118.953,515.125 130.297,541.219 141.641,515.125 160.953,559.641 z M 197.02,515.125 197.02,559.641 190.113,559.641 190.113,532.703 163.895,559.641 163.895,515.125 170.785,515.125 170.785,542 197.02,515.125 z M 239.781,559.641 220.406,515.125 228.078,515.125 232.156,524.672 247.406,524.672 251.484,515.125 259.094,515.125 239.781,559.641 z M 234.859,530.906 239.781,542.484 244.703,530.906 234.859,530.906 z M 292.504,552.984 C 290.582,555.141 288.176,556.828 285.363,557.906 282.473,559.109 279.238,559.641 275.645,559.641 L 265.082,559.641 265.082,515.125 275.645,515.125 C 279.238,515.125 282.473,515.719 285.363,516.859 288.176,517.938 290.582,519.625 292.504,521.781 296.035,525.688 297.895,531.078 297.895,537.391 297.895,543.688 296.035,549.078 292.504,552.984 z M 287.348,526.469 C 284.707,523.578 280.801,522.078 275.645,522.078 L 272.035,522.078 272.035,552.688 275.645,552.688 C 280.801,552.688 284.707,551.25 287.348,548.312 289.676,545.719 290.941,541.938 290.941,537.391 290.941,532.891 289.676,529.047 287.348,526.469 z M 307.047,559.641 299.375,559.641 318.75,515.125 338.062,559.641 330.453,559.641 318.75,532.344 307.047,559.641 z M 349.348,553.406 369.082,553.406 369.082,559.641 342.379,559.641 342.379,515.125 369.082,515.125 369.082,521.422 349.348,521.422 349.348,535.219 365.598,535.219 365.598,541.531 349.348,541.531 349.348,553.406 z M 410.297,515.125 410.297,559.641 403.391,559.641 403.391,532.703 377.172,559.641 377.172,515.125 384.062,515.125 384.062,542 410.297,515.125 z M 447.289,559.641 415.789,559.641 415.789,553.406 428.023,553.406 428.023,515.125 435.055,515.125 435.055,553.406 447.289,553.406 447.289,559.641 z M 469.715,515.125 C 473.918,515.125 477.824,516.391 480.762,518.672 482.434,519.984 483.762,521.609 484.715,523.469 485.684,525.5 486.215,527.781 486.215,530.25 L 486.215,559.641 479.199,559.641 479.199,530.25 C 479.199,527.609 478.293,525.562 476.496,524.188 474.762,522.859 472.293,522.078 469.715,522.078 467.074,522.078 464.621,522.859 462.934,524.188 461.137,525.562 460.184,527.609 460.184,530.25 L 460.184,559.641 453.215,559.641 453.215,530.25 C 453.215,527.781 453.699,525.5 454.715,523.469 455.621,521.609 456.934,519.984 458.684,518.672 461.621,516.391 465.512,515.125 469.715,515.125 z M 514.836,531.203 C 517.242,532.047 518.914,533.422 519.992,534.625 522.336,537.203 523.602,540.812 523.602,544.891 523.602,549.031 522.336,552.625 519.992,555.203 518.195,557.25 514.773,559.641 508.898,559.641 L 495.695,559.641 495.695,515.125 502.664,515.125 502.664,530.188 507.758,530.188 518.977,515.125 526.836,515.125 514.836,531.203 z M 502.664,536.422 502.664,553.344 508.898,553.344 C 511.773,553.344 513.945,552.562 515.32,551 516.992,549.203 517.305,546.688 517.305,544.891 517.305,543.141 516.992,540.625 515.32,538.828 513.945,537.266 511.773,536.422 508.898,536.422 L 502.664,536.422 z M 540.848,553.406 560.582,553.406 560.582,559.641 533.879,559.641 533.879,515.125 560.582,515.125 560.582,521.422 540.848,521.422 540.848,535.219 557.098,535.219 557.098,541.531 540.848,541.531 540.848,553.406 z" /><path
       inkscape:connector-curvature="0"
       id="path6848"
       style="fill:#000000;fill-opacity:1;fill-rule:nonzero;stroke:none"
       d="M 88.395,207.441 62.551,148.082 72.801,148.082 78.238,160.801 98.551,160.801 104.004,148.082 114.16,148.082 88.395,207.441 z M 81.832,169.129 88.395,184.566 94.957,169.129 81.832,169.129 z M 156.109,156.488 131.312,156.488 131.312,207.441 122.031,207.441 122.031,148.082 156.109,148.082 156.109,156.488 z M 199.305,156.488 174.508,156.488 174.508,207.441 165.227,207.441 165.227,148.082 199.305,148.082 199.305,156.488 z M 280.98,177.035 268.824,177.035 264.184,168.645 271.621,168.645 271.621,159.52 C 271.621,159.52 271.621,159.52 271.543,159.52 268.73,158.082 265.699,157.363 262.496,157.363 257.059,157.363 251.934,159.52 248.105,163.363 244.262,167.207 242.105,172.316 242.105,177.77 242.105,183.207 244.262,188.316 248.105,192.16 251.934,196.004 257.059,198.16 262.496,198.16 265.621,198.16 268.574,197.441 271.293,196.16 L 275.371,204.488 C 271.293,206.488 266.98,207.441 262.496,207.441 258.496,207.441 254.574,206.645 250.98,205.129 247.371,203.598 244.262,201.441 241.543,198.723 238.824,196.004 236.652,192.879 235.137,189.285 233.621,185.676 232.824,181.77 232.824,177.77 232.824,173.77 233.621,169.848 235.137,166.238 236.652,162.645 238.824,159.52 241.543,156.801 244.262,154.082 247.371,151.926 250.98,150.395 254.574,148.879 258.496,148.082 262.496,148.082 267.137,148.082 271.621,149.129 275.699,151.207 276.824,151.676 277.855,152.316 278.824,152.957 L 280.98,154.395 280.98,177.035 z M 302.895,199.129 329.207,199.129 329.207,207.441 293.613,207.441 293.613,148.082 329.207,148.082 329.207,156.488 302.895,156.488 302.895,174.879 324.566,174.879 324.566,183.285 302.895,183.285 302.895,199.129 z M 385.812,148.082 385.812,207.441 376.609,207.441 376.609,171.52 341.656,207.441 341.656,148.082 350.859,148.082 350.859,183.926 385.812,148.082 z M 436.414,198.566 C 433.852,201.441 430.648,203.676 426.883,205.129 423.055,206.723 418.727,207.441 413.93,207.441 L 399.852,207.441 399.852,148.082 413.93,148.082 C 418.727,148.082 423.055,148.879 426.883,150.395 430.648,151.848 433.852,154.082 436.414,156.957 441.133,162.16 443.602,169.363 443.602,177.77 443.602,186.16 441.133,193.363 436.414,198.566 z M 429.523,163.207 C 426.008,159.363 420.805,157.363 413.93,157.363 L 409.133,157.363 409.133,198.16 413.93,198.16 C 420.805,198.16 426.008,196.238 429.523,192.316 432.648,188.879 434.336,183.848 434.336,177.77 434.336,171.77 432.648,166.645 429.523,163.207 z M 464.672,199.129 490.984,199.129 490.984,207.441 455.391,207.441 455.391,148.082 490.984,148.082 490.984,156.488 464.672,156.488 464.672,174.879 486.344,174.879 486.344,183.285 464.672,183.285 464.672,199.129 z M 528.793,169.52 C 531.996,170.645 534.23,172.488 535.668,174.082 538.793,177.52 540.465,182.316 540.465,187.77 540.465,193.285 538.793,198.082 535.668,201.52 533.277,204.238 528.715,207.441 520.871,207.441 L 503.277,207.441 503.277,148.082 512.559,148.082 512.559,168.16 519.355,168.16 534.309,148.082 544.793,148.082 528.793,169.52 z M 512.559,176.488 512.559,199.035 520.871,199.035 C 524.715,199.035 527.59,198.004 529.434,195.926 531.668,193.52 532.074,190.16 532.074,187.77 532.074,185.441 531.668,182.082 529.434,179.676 527.59,177.598 524.715,176.488 520.871,176.488 L 512.559,176.488 z" /><path
       inkscape:connector-curvature="0"
       id="path6850"
       style="fill:#000000;fill-opacity:1;fill-rule:nonzero;stroke:none"
       d="M 107.516,69.52 C 110.719,70.645 112.953,72.488 114.391,74.082 117.516,77.52 119.188,82.316 119.188,87.77 119.188,93.285 117.516,98.082 114.391,101.52 112,104.238 107.438,107.441 99.594,107.441 L 82,107.441 82,48.082 91.281,48.082 91.281,68.16 98.078,68.16 113.031,48.082 123.516,48.082 107.516,69.52 z M 91.281,76.488 91.281,99.035 99.594,99.035 C 103.438,99.035 106.312,98.004 108.156,95.926 110.391,93.52 110.797,90.16 110.797,87.77 110.797,85.441 110.391,82.082 108.156,79.676 106.312,77.598 103.438,76.488 99.594,76.488 L 91.281,76.488 z M 143.852,99.129 170.164,99.129 170.164,107.441 134.57,107.441 134.57,48.082 170.164,48.082 170.164,56.488 143.852,56.488 143.852,74.879 165.523,74.879 165.523,83.285 143.852,83.285 143.852,99.129 z M 198.848,48.082 C 203.488,48.082 207.816,49.363 211.488,51.77 214.613,53.848 217.004,56.645 218.535,59.926 220.051,63.285 220.457,66.879 219.645,70.316 218.77,73.926 216.613,77.035 213.41,79.441 210.129,81.926 205.816,83.441 200.613,84.082 195.176,84.723 191.566,87.035 190.613,90.316 190.285,91.441 190.363,92.723 190.77,93.926 191.254,95.129 192.051,96.238 193.098,97.035 194.457,98.082 196.285,98.645 198.285,98.645 200.926,98.645 203.895,97.676 207.004,95.926 L 211.41,103.441 C 206.926,106.082 202.535,107.441 198.285,107.441 198.285,107.441 198.285,107.441 198.285,107.441 194.285,107.441 190.691,106.238 187.738,104.004 185.332,102.16 183.488,99.676 182.535,96.801 181.488,93.926 181.332,90.879 182.129,88.004 183.004,84.723 185.098,81.848 187.973,79.598 191.004,77.363 194.926,75.926 199.566,75.363 205.973,74.566 210.207,72.004 211.098,68.238 211.816,65.035 210.051,61.363 206.613,59.129 204.051,57.441 200.848,56.645 197.332,56.957 192.848,57.363 188.207,59.285 183.332,62.801 L 178.129,55.77 C 184.285,51.207 190.535,48.723 196.613,48.16 197.332,48.16 198.129,48.082 198.848,48.082 z M 268.387,107.441 226.387,107.441 226.387,99.129 242.715,99.129 242.715,48.082 252.074,48.082 252.074,99.129 268.387,99.129 268.387,107.441 z M 304.52,69.52 C 307.723,70.645 309.957,72.488 311.395,74.082 314.52,77.52 316.191,82.316 316.191,87.77 316.191,93.285 314.52,98.082 311.395,101.52 309.004,104.238 304.441,107.441 296.598,107.441 L 279.004,107.441 279.004,48.082 288.285,48.082 288.285,68.16 295.082,68.16 310.035,48.082 320.52,48.082 304.52,69.52 z M 288.285,76.488 288.285,99.035 296.598,99.035 C 300.441,99.035 303.316,98.004 305.16,95.926 307.395,93.52 307.801,90.16 307.801,87.77 307.801,85.441 307.395,82.082 305.16,79.676 303.316,77.598 300.441,76.488 296.598,76.488 L 288.285,76.488 z M 358.688,48.082 C 362.688,48.082 366.609,48.879 370.297,50.395 373.812,51.926 376.938,54.082 379.734,56.801 382.453,59.52 384.531,62.645 386.047,66.238 387.578,69.848 388.375,73.77 388.375,77.77 388.375,81.77 387.578,85.676 386.047,89.363 384.531,92.879 382.453,96.004 379.734,98.801 376.938,101.52 373.812,103.598 370.297,105.129 366.609,106.645 362.688,107.441 358.688,107.441 354.688,107.441 350.766,106.645 347.172,105.129 343.578,103.598 340.453,101.52 337.734,98.801 335.016,96.004 332.859,92.879 331.328,89.363 329.812,85.676 329.016,81.77 329.016,77.77 329.016,73.77 329.812,69.848 331.328,66.238 332.859,62.645 335.016,59.52 337.734,56.801 340.453,54.082 343.578,51.926 347.172,50.395 350.766,48.879 354.688,48.082 358.688,48.082 z M 358.688,98.16 C 364.125,98.16 369.25,96.004 373.094,92.16 376.938,88.316 379.094,83.207 379.094,77.77 379.094,72.316 376.938,67.207 373.094,63.363 369.25,59.52 364.125,57.363 358.688,57.363 353.25,57.363 348.125,59.52 344.297,63.363 340.453,67.207 338.297,72.316 338.297,77.77 338.297,83.207 340.453,88.316 344.297,92.16 348.125,96.004 353.25,98.16 358.688,98.16 z M 428.445,48.082 C 432.445,48.082 436.367,48.879 440.055,50.395 443.57,51.926 446.695,54.082 449.492,56.801 452.211,59.52 454.289,62.645 455.805,66.238 457.336,69.848 458.133,73.77 458.133,77.77 458.133,81.77 457.336,85.676 455.805,89.363 454.289,92.879 452.211,96.004 449.492,98.801 446.695,101.52 443.57,103.598 440.055,105.129 436.367,106.645 432.445,107.441 428.445,107.441 424.445,107.441 420.523,106.645 416.93,105.129 413.336,103.598 410.211,101.52 407.492,98.801 404.773,96.004 402.617,92.879 401.086,89.363 399.57,85.676 398.773,81.77 398.773,77.77 398.773,73.77 399.57,69.848 401.086,66.238 402.617,62.645 404.773,59.52 407.492,56.801 410.211,54.082 413.336,51.926 416.93,50.395 420.523,48.879 424.445,48.082 428.445,48.082 z M 428.445,98.16 C 433.883,98.16 439.008,96.004 442.852,92.16 446.695,88.316 448.852,83.207 448.852,77.77 448.852,72.316 446.695,67.207 442.852,63.363 439.008,59.52 433.883,57.363 428.445,57.363 423.008,57.363 417.883,59.52 414.055,63.363 410.211,67.207 408.055,72.316 408.055,77.77 408.055,83.207 410.211,88.316 414.055,92.16 417.883,96.004 423.008,98.16 428.445,98.16 z M 527.094,48.082 527.094,107.441 499.172,74.879 471.25,107.441 471.25,48.082 480.531,48.082 480.531,82.316 499.172,60.566 517.734,82.316 517.734,48.082 527.094,48.082 z" /><path
       inkscape:connector-curvature="0"
       id="path6852"
       style="fill:#000000;fill-opacity:1;fill-rule:nonzero;stroke:none"
       d="M 398.363,439.801 C 400.203,439.801 414.926,441.438 416.766,441.734 L 416.766,443.812 C 414.926,444.109 400.203,445.746 398.363,445.746 396.523,445.746 396.523,439.801 398.363,439.801 z" /><path
       inkscape:connector-curvature="0"
       id="path6854"
       style="fill:#000000;fill-opacity:1;fill-rule:nonzero;stroke:none"
       d="M 422.285,431.328 422.285,422.812 427.805,422.812 427.805,431.328 C 425.965,431.004 426.09,430.832 425.043,430.832 423.996,430.832 422.285,431.004 422.285,431.328 z" /><path
       inkscape:connector-curvature="0"
       id="path6856"
       style="fill:#000000;fill-opacity:1;fill-rule:nonzero;stroke:none"
       d="M 431.023,416.18 429.035,419.133 420.133,419.133 418.156,416.113 C 418.469,416.121 430.707,416.191 431.023,416.18 z" /><path
       inkscape:connector-curvature="0"
       id="path6858"
       style="fill:#000000;fill-opacity:1;fill-rule:nonzero;stroke:none"
       d="M 429.645,436.652 429.645,444.895 420.445,444.895 420.445,436.652 C 420.445,435.387 420.828,434.5 421.902,433.957 422.789,433.504 423.703,433.285 424.773,433.285 425.844,433.285 426.934,433.504 427.82,433.957 428.895,434.496 429.645,435.387 429.645,436.652 z" /><path
       inkscape:connector-curvature="0"
       id="path6860"
       style="fill:#000000;fill-opacity:1;fill-rule:nonzero;stroke:none"
       d="M 400.141,293.855 C 405.512,291.168 407.613,287.348 409.449,283.98 411.996,279.305 414.016,275.613 424.117,275.613 434.219,275.613 436.23,279.305 438.777,283.98 440.613,287.348 442.734,291.168 448.109,293.855 463.91,301.754 471.965,315.809 471.965,335.621 L 471.965,406.035 C 471.965,409.336 458.309,412.867 435.609,413.773 432.016,413.914 428.18,413.996 424.145,413.996 420.465,413.996 416.906,413.93 413.594,413.812 390.32,412.969 376.285,409.387 376.285,406.035 L 376.285,335.621 C 376.285,315.809 384.34,301.754 400.141,293.855 z M 385.484,390.727 C 385.484,392.422 387.348,394.164 398.395,395.387 405.102,396.137 414.289,396.547 423.957,396.547 433.625,396.547 443.066,396.137 449.773,395.387 460.816,394.16 462.766,392.422 462.766,390.727 L 462.766,335.621 C 462.766,314.691 445.059,297.66 424.125,297.66 403.191,297.66 385.484,314.691 385.484,335.621 L 385.484,390.727 z" /><path
       inkscape:connector-curvature="0"
       id="path6862"
       style="fill:#000000;fill-opacity:1;fill-rule:nonzero;stroke:none"
       d="M 418.832,308.566 C 419.219,308.566 419.609,308.633 419.969,308.781 421.066,309.23 421.445,310.219 420.809,310.996 420.383,311.52 419.609,311.812 418.816,311.812 418.43,311.812 418.031,311.742 417.672,311.594 416.578,311.148 416.199,310.152 416.836,309.375 417.262,308.855 418.031,308.566 418.832,308.566 z" /><path
       inkscape:connector-curvature="0"
       id="path6864"
       style="fill:#000000;fill-opacity:1;fill-rule:nonzero;stroke:none"
       d="M 426.418,308.023 C 426.418,307.129 425.391,306.402 424.125,306.402 422.859,306.402 421.832,307.129 421.832,308.023 421.832,308.918 422.859,309.645 424.125,309.645 425.391,309.645 426.418,308.918 426.418,308.023 z" /><path
       inkscape:connector-curvature="0"
       id="path6866"
       style="fill:#000000;fill-opacity:1;fill-rule:nonzero;stroke:none"
       d="M 422.973,313.762 C 421.879,313.312 421.504,312.32 422.137,311.539 422.562,311.02 423.332,310.73 424.125,310.73 424.516,310.73 424.91,310.801 425.27,310.945 426.367,311.395 426.75,312.387 426.109,313.164 425.684,313.684 424.914,313.977 424.117,313.977 423.73,313.977 423.332,313.906 422.973,313.762 z" /><path
       inkscape:connector-curvature="0"
       id="path6868"
       style="fill:#000000;fill-opacity:1;fill-rule:nonzero;stroke:none"
       d="M 417.672,313.109 C 418.031,312.965 418.426,312.895 418.812,312.895 419.609,312.895 420.383,313.188 420.809,313.707 421.445,314.484 421.066,315.477 419.969,315.926 419.609,316.07 419.215,316.145 418.824,316.145 418.031,316.145 417.258,315.852 416.836,315.332 416.199,314.551 416.578,313.559 417.672,313.109 z" /><path
       inkscape:connector-curvature="0"
       id="path6870"
       style="fill:#000000;fill-opacity:1;fill-rule:nonzero;stroke:none"
       d="M 429.434,312.895 C 429.82,312.895 430.215,312.965 430.57,313.109 431.676,313.559 432.051,314.551 431.418,315.332 430.992,315.852 430.219,316.145 429.426,316.145 429.039,316.145 428.641,316.07 428.281,315.926 427.18,315.477 426.801,314.484 427.438,313.707 427.863,313.188 428.637,312.895 429.434,312.895 z" /><path
       inkscape:connector-curvature="0"
       id="path6872"
       style="fill:#000000;fill-opacity:1;fill-rule:nonzero;stroke:none"
       d="M 428.281,308.781 C 428.641,308.633 429.035,308.566 429.422,308.566 430.219,308.566 430.992,308.855 431.418,309.375 432.051,310.152 431.676,311.148 430.57,311.594 430.215,311.742 429.816,311.812 429.43,311.812 428.633,311.812 427.863,311.52 427.438,310.996 426.801,310.223 427.18,309.23 428.281,308.781 z" /><path
       inkscape:connector-curvature="0"
       id="path6874"
       style="fill:#000000;fill-opacity:1;fill-rule:nonzero;stroke:none"
       d="M 426.418,316.68 C 426.418,315.785 425.391,315.059 424.125,315.059 422.859,315.059 421.832,315.785 421.832,316.68 421.832,317.578 422.859,318.305 424.125,318.305 425.391,318.305 426.418,317.578 426.418,316.68 z" /><path
       inkscape:connector-curvature="0"
       id="path6876"
       style="fill:#000000;fill-opacity:1;fill-rule:nonzero;stroke:none"
       d="M 418.375,446.734 430.789,446.734 C 431.258,446.734 431.293,447.273 431.555,447.613 431.746,447.859 431.484,448.477 431.484,448.812 L 431.484,456.551 C 431.484,458.242 430.867,459.613 429.172,459.613 L 419.992,459.613 C 418.305,459.613 416.766,458.242 416.766,456.551 L 416.766,448.812 C 416.766,448.477 416.965,447.859 417.152,447.613 417.418,447.273 417.91,446.734 418.375,446.734 z" /><path
       inkscape:connector-curvature="0"
       id="path6878"
       style="fill:#000000;fill-opacity:1;fill-rule:nonzero;stroke:none"
       d="M 206.168,357.391 C 193.441,357.391 183.637,351.133 183.637,343.207 183.637,335.277 193.441,329.02 206.168,329.02 218.891,329.02 228.699,335.277 228.699,343.207 228.699,351.133 218.891,357.391 206.168,357.391 z M 206.168,333.609 C 196.363,333.609 188.227,337.988 188.227,343.207 188.227,348.422 196.363,352.801 206.168,352.801 215.973,352.801 224.109,348.422 224.109,343.207 224.109,337.988 215.973,333.609 206.168,333.609 z M 272.09,438.543 C 272.09,445.219 266.664,450.434 259.988,450.434 L 229.113,450.434 C 221.812,456.277 213.887,459.613 206.168,459.613 198.238,459.613 189.895,456.066 182.594,449.809 L 152.137,449.809 C 145.461,449.809 140.035,444.176 140.035,437.5 L 140.035,431.66 C 140.035,427.488 142.121,423.941 145.25,421.855 L 145.25,365.32 C 145.25,359.895 148.172,354.887 152.551,351.969 153.387,351.34 154.848,350.297 156.516,349.465 L 156.516,349.254 C 156.516,348.211 156.727,346.961 156.727,345.918 156.727,332.566 163.402,320.676 172.789,312.121 L 172.789,288.34 C 172.789,279.996 189.477,275.613 205.957,275.613 222.438,275.613 239.129,279.996 239.129,288.34 L 239.129,312.746 C 248.727,321.301 255.191,333.191 255.191,346.543 255.402,347.586 255.402,348.84 255.402,349.883 L 255.402,350.09 C 257.07,350.926 258.738,351.969 259.363,352.594 263.746,355.516 266.664,360.312 266.664,365.945 L 266.664,422.898 C 269.797,425.191 271.883,428.738 271.883,432.91 L 272.09,438.543 z M 206.168,455.234 C 228.699,455.234 249.141,424.566 249.141,390.77 249.141,382.219 247.684,374.082 245.18,366.777 L 167.156,366.777 C 164.652,374.082 163.191,382.219 163.191,390.77 163.191,424.566 183.637,455.234 206.168,455.234 z M 144.207,432.078 144.207,437.918 C 144.207,442.297 147.754,446.055 152.137,446.055 L 178.211,446.055 C 172.789,440.211 167.988,432.91 164.445,424.359 L 152.344,424.359 C 147.961,424.148 144.418,427.695 144.207,432.078 z M 156.098,355.516 155.055,356.348 C 152.137,358.434 150.258,361.773 150.258,365.734 L 150.258,420.184 C 150.883,419.977 151.719,419.977 152.344,419.977 L 162.773,419.977 C 159.855,411.215 157.977,401.41 157.977,390.77 157.977,381.59 159.438,372.828 162.148,365.109 159.645,361.98 157.977,358.434 157.141,354.887 156.934,355.098 156.516,355.305 156.098,355.516 z M 234.539,288.965 C 234.539,285.629 223.48,281.039 206.168,281.039 188.852,281.039 177.797,285.629 177.797,288.965 L 177.797,309.199 C 186.348,302.941 196.57,299.188 206.168,299.188 215.762,299.188 225.984,302.941 234.539,309.199 L 234.539,288.965 z M 206.168,303.777 C 187.184,303.777 171.535,316.711 164.859,331.73 171.953,324.641 183.012,319.422 195.945,317.547 195.945,317.547 205.332,316.086 215.973,317.547 228.906,319.422 239.961,324.641 247.055,331.73 240.797,316.711 225.152,303.777 206.168,303.777 z M 206.168,321.301 C 181.551,321.301 161.312,334.027 161.312,349.672 161.312,354.055 162.984,358.434 165.902,362.191 L 246.43,362.191 C 249.352,358.434 251.02,354.262 251.02,349.672 251.02,334.027 230.785,321.301 206.168,321.301 z M 262.078,365.734 C 262.078,361.98 260.199,358.645 257.277,356.348 L 256.234,355.516 C 255.816,355.305 255.402,355.098 254.984,354.68 254.148,358.227 252.48,361.773 249.977,364.902 252.688,372.828 254.148,381.383 254.148,390.562 254.148,401.617 252.27,411.633 249.141,420.395 L 260.199,420.395 C 260.824,420.395 261.449,420.395 262.285,420.602 L 262.285,365.734 262.078,365.734 z M 260.199,424.773 247.684,424.773 C 244.137,433.328 239.129,440.629 233.703,446.473 L 259.988,446.473 C 264.371,446.473 267.918,443.133 267.918,438.543 L 267.918,432.703 C 268.125,428.531 264.578,424.773 260.199,424.773 z M 154.637,431.66 C 152.762,431.66 151.301,433.121 151.301,434.996 151.301,436.875 152.762,438.336 154.637,438.336 L 161.312,438.336 C 163.191,438.336 164.652,436.875 164.652,434.996 164.652,433.121 163.191,431.66 161.312,431.66 L 154.637,431.66 z" /><text
       xml:space="preserve"
       style="font-size:32px;font-style:normal;font-variant:normal;font-weight:normal;font-stretch:normal;line-height:125%;letter-spacing:0px;word-spacing:0px;fill:#000000;fill-opacity:1;stroke:none;font-family:Aleo;-inkscape-font-specification:Aleo"
       x="-253.75224"
       y="240.41275"
       id="text4637"
       sodipodi:linespacing="125%"
       transform="scale(1,-1)"><tspan
         sodipodi:role="line"
         id="tspan4639"
         x="-253.75224"
         y="240.41275" /></text>
<rect
       style="fill:url(#linearGradient7536);fill-opacity:1;stroke:none"
       id="rect3150"
       width="612.32922"
       height="105.8209"
       x="0"
       y="-792"
       transform="scale(1,-1)" /><path
       inkscape:connector-curvature="0"
       id="path3525"
       style="font-size:48.36570358px;font-style:normal;font-variant:normal;font-weight:bold;font-stretch:normal;line-height:125%;letter-spacing:0px;word-spacing:0px;fill:#00d1d1;fill-opacity:0.6;stroke:#3c3e1f;stroke-width:0.80000001;stroke-opacity:0.93269228;font-family:Intro Cond;-inkscape-font-specification:Intro Cond Bold"
       d="M 109.51465,738.26699 111.16776,736.61388 105.1676,729.57287 111.04531,722.71553 109.45343,721.0012 103.51448,727.85853 97.698003,720.93997 96.106113,722.59308 102.10628,729.51164 95.983663,736.61388 97.575543,738.26699 103.63694,731.22597 109.51465,738.26699 M 85.085401,729.57287 C 85.085401,719.3481 93.350943,711.08255 103.57571,711.08255 113.80048,711.08255 122.12726,719.3481 122.12726,729.57287 122.12726,739.79764 113.80048,748.12441 103.57571,748.12441 93.350943,748.12441 85.085401,739.79764 85.085401,729.57287" /><g
       id="g6584"
       style="fill:#0066ff;fill-opacity:1;stroke:#6f7623;stroke-opacity:0.93269228"
       transform="matrix(0.8,0,0,-0.8,-1.88526e-5,841.88959)"><path
         d="M 183.60524,164.95278 183.60524,130.68816 213.64958,165.45519 218.67371,165.45519 218.67371,94.614856 201.2902,94.614856 201.2902,128.17609 171.64779,94.011959 166.22172,94.011959 166.22172,164.95278 183.60524,164.95278"
         style="font-size:63.50114059px;font-style:normal;font-variant:normal;font-weight:bold;font-stretch:normal;line-height:125%;letter-spacing:0px;word-spacing:0px;fill:#0066ff;fill-opacity:1;stroke:#6f7623;stroke-opacity:0.93269228;font-family:Intro Cond;-inkscape-font-specification:Intro Cond Bold"
         id="path3527"
         inkscape:connector-curvature="0" /><path
         d="M 248.17325,110.59161 268.67173,110.59161 268.67173,94.614856 230.89022,94.614856 230.89022,164.95278 269.4756,164.95278 269.4756,148.17216 248.17325,148.17216 248.17325,136.71713 266.86305,136.71713 266.86305,120.63989 248.17325,120.63989 248.17325,110.59161"
         style="font-size:63.50114059px;font-style:normal;font-variant:normal;font-weight:bold;font-stretch:normal;line-height:125%;letter-spacing:0px;word-spacing:0px;fill:#0066ff;fill-opacity:1;stroke:#6f7623;stroke-opacity:0.93269228;font-family:Intro Cond;-inkscape-font-specification:Intro Cond Bold"
         id="path3529"
         inkscape:connector-curvature="0" /><path
         d="M 274.93934,94.614856 274.93934,110.6921 288.80596,110.6921 288.80596,164.95278 305.68706,164.95278 305.68706,110.6921 319.4532,110.6921 319.4532,94.614856 274.93934,94.614856"
         style="font-size:63.50114059px;font-style:normal;font-variant:normal;font-weight:bold;font-stretch:normal;line-height:125%;letter-spacing:0px;word-spacing:0px;fill:#0066ff;fill-opacity:1;stroke:#6f7623;stroke-opacity:0.93269228;font-family:Intro Cond;-inkscape-font-specification:Intro Cond Bold"
         id="path3531"
         inkscape:connector-curvature="0" /></g><g
       style="fill:#4d4d4d;fill-opacity:1"
       id="g6570"
       transform="matrix(0.8,0,0,-0.8,1.5999806,841.88959)"><path
         inkscape:connector-curvature="0"
         id="path6572"
         style="font-size:63.50114059px;font-style:italic;font-variant:normal;font-weight:bold;font-stretch:normal;line-height:125%;letter-spacing:0px;word-spacing:0px;fill:#4d4d4d;fill-opacity:1;stroke:none;font-family:Intro Cond;-inkscape-font-specification:Intro Cond Bold Italic"
         d="M 348.96058,142.24368 366.74602,142.24368 369.96147,126.16644 352.17602,126.16644 355.29099,110.59161 375.68898,110.59161 378.90444,94.614856 341.12292,94.614856 327.05534,164.95278 344.43886,164.95278 348.96058,142.24368" /><path
         inkscape:connector-curvature="0"
         id="path6574"
         style="font-size:63.50114059px;font-style:italic;font-variant:normal;font-weight:bold;font-stretch:normal;line-height:125%;letter-spacing:0px;word-spacing:0px;fill:#4d4d4d;fill-opacity:1;stroke:none;font-family:Intro Cond;-inkscape-font-specification:Intro Cond Bold Italic"
         d="M 426.01042,164.85229 426.2114,163.94795 419.37857,138.42533 C 426.51284,133.80313 429.92926,127.47271 431.63747,119.43409 434.55146,104.56266 427.11573,94.614856 412.8472,94.614856 L 388.02795,94.614856 373.96036,164.85229 391.34388,164.85229 395.76512,142.84657 402.39699,142.84657 407.01919,164.85229 426.01042,164.85229 M 398.47816,127.87465 401.89457,110.49113 409.53126,110.49113 C 413.75153,110.49113 415.96216,113.90755 414.85685,119.03216 413.85202,124.35774 410.33511,127.87465 406.11485,127.87465 L 398.47816,127.87465" /><path
         inkscape:connector-curvature="0"
         id="path6576"
         style="font-size:63.50114059px;font-style:italic;font-variant:normal;font-weight:bold;font-stretch:normal;line-height:125%;letter-spacing:0px;word-spacing:0px;fill:#4d4d4d;fill-opacity:1;stroke:none;font-family:Intro Cond;-inkscape-font-specification:Intro Cond Bold Italic"
         d="M 463.15922,164.95278 466.17371,150.08133 459.03944,150.08133 467.07806,109.4863 473.50895,109.4863 476.52343,94.614856 446.37861,94.614856 443.36413,109.4863 449.69454,109.4863 441.65592,150.08133 434.62213,150.08133 431.60764,164.95278 463.15922,164.95278" /><path
         inkscape:connector-curvature="0"
         id="path6578"
         style="font-size:63.50114059px;font-style:italic;font-variant:normal;font-weight:bold;font-stretch:normal;line-height:125%;letter-spacing:0px;word-spacing:0px;fill:#4d4d4d;fill-opacity:1;stroke:none;font-family:Intro Cond;-inkscape-font-specification:Intro Cond Bold Italic"
         d="M 490.54862,164.95278 497.38145,130.68816 520.49248,165.45519 525.51662,165.45519 539.68468,94.614856 522.30116,94.614856 515.56882,128.17609 492.75923,94.011959 487.33317,94.011959 473.1651,164.95278 490.54862,164.95278" /><path
         inkscape:connector-curvature="0"
         id="path6580"
         style="font-size:63.50114059px;font-style:italic;font-variant:normal;font-weight:bold;font-stretch:normal;line-height:125%;letter-spacing:0px;word-spacing:0px;fill:#4d4d4d;fill-opacity:1;stroke:none;font-family:Intro Cond;-inkscape-font-specification:Intro Cond Bold Italic"
         d="M 541.85294,129.8843 C 537.53218,151.48807 546.97757,165.85712 565.56687,165.85712 587.37159,165.85712 599.1281,147.36827 601.94161,125.06113 L 573.70596,125.06113 570.69147,140.53547 581.34264,140.53547 C 578.22768,147.26781 573.80644,149.0765 568.98326,149.0765 560.94466,149.0765 557.12631,141.33932 559.43742,129.78382 561.84899,117.92686 567.97846,110.0892 576.72044,110.0892 581.84506,110.0892 585.161,112.19934 585.86438,117.82637 L 602.74548,117.82637 C 603.1474,100.54335 591.89333,93.610029 580.03637,93.610029 562.25095,93.610029 546.17368,108.07957 541.85294,129.8843" /><path
         inkscape:connector-curvature="0"
         id="path6582"
         style="font-size:63.50114059px;font-style:italic;font-variant:normal;font-weight:bold;font-stretch:normal;line-height:125%;letter-spacing:0px;word-spacing:0px;fill:#4d4d4d;fill-opacity:1;stroke:none;font-family:Intro Cond;-inkscape-font-specification:Intro Cond Bold Italic"
         d="M 630.9293,110.59161 651.42778,110.59161 654.64323,94.614856 616.86172,94.614856 602.79414,164.95278 641.37951,164.95278 644.69545,148.17216 623.39311,148.17216 625.7042,136.71713 644.39399,136.71713 647.60944,120.63989 628.91965,120.63989 630.9293,110.59161" /></g><g
       id="g6562"
       style="fill:#d35f8d;fill-opacity:1"
       transform="matrix(0.8,0,0,-0.8,-1.6000189,843.48959)"><path
         d="M 348.96058,142.24368 366.74602,142.24368 369.96147,126.16644 352.17602,126.16644 355.29099,110.59161 375.68898,110.59161 378.90444,94.614856 341.12292,94.614856 327.05534,164.95278 344.43886,164.95278 348.96058,142.24368"
         style="font-size:63.50114059px;font-style:italic;font-variant:normal;font-weight:bold;font-stretch:normal;line-height:125%;letter-spacing:0px;word-spacing:0px;fill:#d35f8d;fill-opacity:1;stroke:none;font-family:Intro Cond;-inkscape-font-specification:Intro Cond Bold Italic"
         id="path3533"
         inkscape:connector-curvature="0" /><path
         d="M 426.01042,164.85229 426.2114,163.94795 419.37857,138.42533 C 426.51284,133.80313 429.92926,127.47271 431.63747,119.43409 434.55146,104.56266 427.11573,94.614856 412.8472,94.614856 L 388.02795,94.614856 373.96036,164.85229 391.34388,164.85229 395.76512,142.84657 402.39699,142.84657 407.01919,164.85229 426.01042,164.85229 M 398.47816,127.87465 401.89457,110.49113 409.53126,110.49113 C 413.75153,110.49113 415.96216,113.90755 414.85685,119.03216 413.85202,124.35774 410.33511,127.87465 406.11485,127.87465 L 398.47816,127.87465"
         style="font-size:63.50114059px;font-style:italic;font-variant:normal;font-weight:bold;font-stretch:normal;line-height:125%;letter-spacing:0px;word-spacing:0px;fill:#d35f8d;fill-opacity:1;stroke:none;font-family:Intro Cond;-inkscape-font-specification:Intro Cond Bold Italic"
         id="path3535"
         inkscape:connector-curvature="0" /><path
         d="M 463.15922,164.95278 466.17371,150.08133 459.03944,150.08133 467.07806,109.4863 473.50895,109.4863 476.52343,94.614856 446.37861,94.614856 443.36413,109.4863 449.69454,109.4863 441.65592,150.08133 434.62213,150.08133 431.60764,164.95278 463.15922,164.95278"
         style="font-size:63.50114059px;font-style:italic;font-variant:normal;font-weight:bold;font-stretch:normal;line-height:125%;letter-spacing:0px;word-spacing:0px;fill:#d35f8d;fill-opacity:1;stroke:none;font-family:Intro Cond;-inkscape-font-specification:Intro Cond Bold Italic"
         id="path3537"
         inkscape:connector-curvature="0" /><path
         d="M 490.54862,164.95278 497.38145,130.68816 520.49248,165.45519 525.51662,165.45519 539.68468,94.614856 522.30116,94.614856 515.56882,128.17609 492.75923,94.011959 487.33317,94.011959 473.1651,164.95278 490.54862,164.95278"
         style="font-size:63.50114059px;font-style:italic;font-variant:normal;font-weight:bold;font-stretch:normal;line-height:125%;letter-spacing:0px;word-spacing:0px;fill:#d35f8d;fill-opacity:1;stroke:none;font-family:Intro Cond;-inkscape-font-specification:Intro Cond Bold Italic"
         id="path3539"
         inkscape:connector-curvature="0" /><path
         d="M 541.85294,129.8843 C 537.53218,151.48807 546.97757,165.85712 565.56687,165.85712 587.37159,165.85712 599.1281,147.36827 601.94161,125.06113 L 573.70596,125.06113 570.69147,140.53547 581.34264,140.53547 C 578.22768,147.26781 573.80644,149.0765 568.98326,149.0765 560.94466,149.0765 557.12631,141.33932 559.43742,129.78382 561.84899,117.92686 567.97846,110.0892 576.72044,110.0892 581.84506,110.0892 585.161,112.19934 585.86438,117.82637 L 602.74548,117.82637 C 603.1474,100.54335 591.89333,93.610029 580.03637,93.610029 562.25095,93.610029 546.17368,108.07957 541.85294,129.8843"
         style="font-size:63.50114059px;font-style:italic;font-variant:normal;font-weight:bold;font-stretch:normal;line-height:125%;letter-spacing:0px;word-spacing:0px;fill:#d35f8d;fill-opacity:1;stroke:none;font-family:Intro Cond;-inkscape-font-specification:Intro Cond Bold Italic"
         id="path3541"
         inkscape:connector-curvature="0" /><path
         d="M 630.9293,110.59161 651.42778,110.59161 654.64323,94.614856 616.86172,94.614856 602.79414,164.95278 641.37951,164.95278 644.69545,148.17216 623.39311,148.17216 625.7042,136.71713 644.39399,136.71713 647.60944,120.63989 628.91965,120.63989 630.9293,110.59161"
         style="font-size:63.50114059px;font-style:italic;font-variant:normal;font-weight:bold;font-stretch:normal;line-height:125%;letter-spacing:0px;word-spacing:0px;fill:#d35f8d;fill-opacity:1;stroke:none;font-family:Intro Cond;-inkscape-font-specification:Intro Cond Bold Italic"
         id="path3543"
         inkscape:connector-curvature="0" /></g></g></svg>