<?xml version="1.0" encoding="UTF-8"?>
<svg width="170px" height="35px" viewBox="0 0 170 35" version="1.1" xmlns="http://www.w3.org/2000/svg" xmlns:xlink="http://www.w3.org/1999/xlink">
    <!-- Generator: Sketch 42 (36781) - http://www.bohemiancoding.com/sketch -->
    <title>logo</title>
    <desc>Created with Sketch.</desc>
    <defs></defs>
    <g id="Symbols" stroke="none" stroke-width="1" fill="none" fill-rule="evenodd">
        <g id="Header" transform="translate(-227.000000, -41.000000)">
            <g id="logo">
                <g transform="translate(227.000000, 40.000000)">
                    <polygon id="Fill-6" fill="#3445DC" points="103.862929 26.4050788 103.862929 10.6760998 113.724625 10.6760998 113.724625 13.2585806 106.845195 13.2585806 106.845195 17.2388621 112.958126 17.2388621 112.958126 19.8003691 106.845195 19.8003691 106.845195 23.779974 113.937693 23.779974 113.937693 26.4050788"></polygon>
                    <polygon id="Fill-8" fill="#3445DC" points="118.559082 20.6257886 115.342646 14.8674722 118.537979 14.8674722 120.454907 18.6359862 120.625089 19.1440928 120.816374 18.6359862 122.542698 14.8674722 125.566488 14.8674722 122.350052 20.6048149 125.673363 26.4050788 122.71288 26.4050788 120.667975 22.5100456 120.454907 21.9593149 120.284045 22.5100456 118.452888 26.4050788 115.44952 26.4050788"></polygon>
                    <path d="M133.97912,17.2597682 L130.932866,17.2597682 L130.932866,23.0390584 C130.932866,23.9497262 131.337898,24.3516108 131.977101,24.3516108 C132.807589,24.3516108 133.830041,24.3089867 133.830041,24.3089867 L134.021325,26.108672 C134.021325,26.108672 132.424339,26.6167787 130.507411,26.6167787 C128.356313,26.6167787 128.122143,25.0505112 128.122143,22.1500409 L128.122143,17.2597682 L126.588464,17.2597682 L126.588464,15.2909395 L128.270541,15.079172 L128.420301,12.5602892 L130.932866,12.4330934 L130.932866,15.1008224 L133.97912,15.1008224 L133.97912,17.2597682 Z" id="Fill-10" fill="#3445DC"></path>
                    <path d="M142.520137,19.4189846 C142.520137,17.3446105 141.838729,16.6883343 140.411244,16.6883343 C138.98444,16.6883343 138.239043,17.3236367 138.239043,19.4189846 L142.520137,19.4189846 Z M135.341868,20.7734846 C135.341868,16.7302818 137.110398,14.6559077 140.496335,14.6559077 C143.712771,14.6559077 145.310438,16.4982171 145.310438,19.3980108 C145.310438,20.3506262 145.24645,21.3878133 145.24645,21.3878133 L138.217941,21.3878133 C138.217941,23.2084724 138.665179,24.3728552 140.347937,24.3728552 C141.944923,24.3728552 144.586145,24.033892 144.586145,24.033892 L144.820315,25.918149 C144.820315,25.918149 142.179093,26.6170493 140.0702,26.6170493 C137.301682,26.6170493 135.341868,25.071079 135.341868,20.7734846 L135.341868,20.7734846 Z" id="Fill-12" fill="#3445DC"></path>
                    <path d="M150.22951,26.4050788 L147.418106,26.4050788 L147.418106,14.8674722 L149.803375,14.8674722 L150.102214,16.2652729 C151.869382,15.2274093 152.891834,14.6557047 154.553489,14.6557047 C157.364212,14.6557047 157.535075,16.2652729 157.535075,18.9749495 L157.535075,26.4050788 L154.724352,26.4050788 L154.724352,20.0540841 C154.724352,17.5771488 154.616797,17.1752642 153.616128,17.1752642 C152.529687,17.1752642 151.720303,17.6407467 150.22951,18.5514145 L150.22951,26.4050788 Z" id="Fill-14" fill="#3445DC"></path>
                    <path d="M167.098068,23.3776157 L167.098068,17.1754671 C167.098068,17.1754671 166.053832,16.8365038 165.117151,16.8365038 C163.56237,16.8365038 162.47593,18.0218605 162.47593,20.5197696 C162.47593,23.3356682 163.392189,24.3728552 164.840095,24.3728552 C166.010946,24.3728552 167.098068,23.3776157 167.098068,23.3776157 L167.098068,23.3776157 Z M167.694385,26.4052818 L167.332238,25.0927294 C166.970091,25.5582119 165.947639,26.6170493 164.136904,26.6170493 C162.028692,26.6170493 159.578754,25.1346769 159.578754,21.0278762 C159.578754,16.4129689 162.049794,14.6559077 164.605925,14.6559077 C165.904753,14.6559077 166.799909,14.825051 167.098068,14.9312731 L167.098068,10.4855091 L169.909471,10.4855091 L169.909471,26.4052818 L167.694385,26.4052818 Z" id="Fill-16" fill="#3445DC"></path>
                    <path d="M6.7562304,29.1559587 L6.7562304,29.1559587 L15.8323671,35.7099255 L24.9085039,29.1559587 L15.8323671,22.601992 L6.7562304,29.1559587 Z M30.5176966,11.9980566 L30.5176966,11.9980566 L21.4415599,18.5520234 L24.9085039,29.1559587 C30.3202857,25.2480706 32.5843846,18.3213119 30.5176966,11.9980566 L30.5176966,11.9980566 Z M1.1477184,11.9980566 L1.1477184,11.9980566 C-0.919650327,18.3213119 1.34512931,25.2480706 6.7562304,29.1559587 L10.2231744,18.5520234 L1.1477184,11.9980566 Z M15.8323671,1.39344476 L4.6146624,1.39344476 L1.1477184,11.9980566 L12.3654231,11.9980566 L15.8323671,1.39344476 Z M30.5176966,11.9980566 L27.0507526,1.39344476 L15.8323671,1.39344476 L19.2993111,11.9980566 L30.5176966,11.9980566 Z" id="Fill-3" fill="#000000"></path>
                    <g id="Page-1" transform="translate(0.390545, 0.716939)">
                        <path d="M90.0193745,9.67926241 C88.3386589,9.67926241 86.9173004,10.4573219 85.9091433,11.9288691 C84.906432,13.3922974 84.3768262,15.434196 84.3768262,17.8346785 C84.3768262,20.235161 84.906432,22.2770596 85.9091433,23.7398114 C86.9173004,25.2120351 88.3386589,25.989418 90.0193745,25.989418 C91.7000902,25.989418 93.1214487,25.2120351 94.1296058,23.7398114 C95.1323171,22.2770596 95.6619229,20.235161 95.6619229,17.8346785 C95.6619229,15.434196 95.1323171,13.3922974 94.1296058,11.9288691 C93.1214487,10.4573219 91.7000902,9.67926241 90.0193745,9.67926241 L90.0193745,9.67926241 Z M90.0193745,23.9691698 C89.2154356,23.9691698 88.5816785,23.5219547 88.0779404,22.603168 C87.4714124,21.492911 87.1371753,19.7994477 87.1371753,17.8346785 C87.1371753,15.8699093 87.4714124,14.1757694 88.0779404,13.066189 C88.5816785,12.1467257 89.2154356,11.7001872 90.0193745,11.7001872 C90.8226327,11.7001872 91.4570705,12.1467257 91.9608087,13.066189 C92.5673367,14.1757694 92.9015738,15.8692327 92.9015738,17.8346785 C92.9015738,19.7994477 92.5673367,21.492911 91.9608087,22.603168 C91.4570705,23.5219547 90.8226327,23.9691698 90.0193745,23.9691698 L90.0193745,23.9691698 Z M53.5984233,15.6209302 L53.5984233,22.6356435 C53.5984233,24.4853953 55.1293789,25.989418 57.0115898,25.989418 C58.6528233,25.989418 59.8931084,25.1897082 60.3498764,24.8453323 C60.3750633,24.8263883 60.4084189,24.8202991 60.4390516,24.8297712 C60.4696844,24.8399198 60.4935098,24.8629233 60.50304,24.8933691 L60.7780538,25.7790037 L62.8120669,25.7790037 L62.8120669,15.6209302 L60.1980742,15.6209302 L60.1980742,23.2168201 C60.1980742,23.2526785 60.1776524,23.2858306 60.1456582,23.3020684 C59.6548538,23.5510474 58.6848175,23.9691698 57.7134196,23.9691698 C56.8856553,23.9691698 56.2117353,23.3074809 56.2117353,22.4928865 L56.2117353,15.6209302 L53.5984233,15.6209302 Z M79.7669411,25.7790037 L82.3809338,25.7790037 L82.3809338,18.7642904 C82.3809338,16.9145386 80.8492975,15.4098393 78.9677673,15.4098393 C77.5824873,15.4098393 76.4715404,15.9950753 75.9324044,16.3441872 C75.9017716,16.3638079 75.8636509,16.365161 75.8316567,16.3482467 C75.8003433,16.3320089 75.7806022,16.2995334 75.7806022,16.263675 L75.7806022,9.89035332 L73.1672902,9.89035332 L73.1672902,25.7790037 L75.7806022,25.7790037 L75.7806022,18.1831138 C75.7806022,18.1472554 75.801024,18.1141033 75.8336989,18.0978656 C76.325184,17.8488865 77.2952204,17.4307642 78.2652567,17.4307642 C78.6662051,17.4307642 79.0440087,17.5843463 79.3271913,17.8630946 C79.6110545,18.1418428 79.7669411,18.5126051 79.7669411,18.9063708 L79.7669411,25.7790037 Z M64.6956393,17.6418551 L66.2864989,17.6418551 C66.3402764,17.6418551 66.3838429,17.6844792 66.3838429,17.7372519 L66.3838429,23.3257484 C66.3838429,24.7945893 67.5996218,25.989418 69.0951796,25.989418 C69.6370385,25.989418 70.1714095,25.9129652 70.6860393,25.7614128 L70.6860393,23.9265456 C70.3858385,23.9522554 70.0407098,23.9691698 69.7970095,23.9691698 C69.3565789,23.9691698 68.9971549,23.616675 68.9971549,23.1829914 L68.9971549,17.7372519 C68.9971549,17.6844792 69.0414022,17.6411785 69.0951796,17.6411785 L70.6860393,17.6411785 L70.6860393,15.6209302 L69.0951796,15.6209302 C69.0414022,15.6209302 68.9971549,15.5776295 68.9971549,15.5248568 L68.9971549,12.1704058 L66.3838429,12.1704058 L66.3838429,15.5248568 C66.3838429,15.5776295 66.3402764,15.6209302 66.2864989,15.6209302 L64.6956393,15.6209302 L64.6956393,17.6418551 Z M49.4187578,25.7790037 L52.1382633,25.7790037 L48.0028451,11.6095264 C47.6720116,10.472883 46.6005469,9.67926241 45.3970211,9.67926241 C44.1948567,9.67926241 43.1227113,10.472883 42.7911971,11.6095264 L38.6564596,25.7790037 L41.3752844,25.7790037 L42.5720029,21.6776156 C42.584256,21.6363446 42.6223767,21.6086051 42.666624,21.6086051 L48.1287796,21.6086051 C48.1716655,21.6086051 48.2104669,21.6363446 48.22272,21.6776156 L49.4187578,25.7790037 Z M47.4834502,19.5883568 L43.3119535,19.5883568 C43.2813207,19.5883568 43.2520495,19.5741488 43.2336698,19.5491156 C43.2152902,19.5261121 43.2091636,19.4943131 43.2180131,19.465897 L45.3037615,12.3165456 C45.3160145,12.2759512 45.3541353,12.2475351 45.3977018,12.2475351 C45.4412684,12.2475351 45.4793891,12.2759512 45.4909615,12.3165456 L47.5767098,19.465897 C47.5855593,19.4949897 47.5794327,19.5261121 47.5610531,19.5491156 C47.5433542,19.5741488 47.5140829,19.5883568 47.4834502,19.5883568 L47.4834502,19.5883568 Z" id="Fill-1" fill="#000000"></path>
                        <g id="Group-5" transform="translate(0.000000, 0.487606)"></g>
                    </g>
                </g>
            </g>
        </g>
    </g>
</svg>