<?xml version="1.0" encoding="utf-8"?>
<!-- Generator: Adobe Illustrator 17.0.0, SVG Export Plug-In . SVG Version: 6.00 Build 0)  -->
<!DOCTYPE svg PUBLIC "-//W3C//DTD SVG 1.1//EN" "http://www.w3.org/Graphics/SVG/1.1/DTD/svg11.dtd">
<svg version="1.1" id="Layer_1" xmlns="http://www.w3.org/2000/svg" xmlns:xlink="http://www.w3.org/1999/xlink" x="0px" y="0px"
	 width="116px" height="42.64px" viewBox="0 0 116 42.64" enable-background="new 0 0 116 42.64" xml:space="preserve">
<g>
	<path fill="#48555C" d="M16.734,28.785L9.34,38.962c3.252,2.214,7.148,3.552,11.35,3.676l0-12.578
		C19.246,29.956,17.899,29.504,16.734,28.785z"/>
	<path fill="#B2AD4B" d="M20.656,12.583V0.004c-4.2,0.13-8.094,1.474-11.343,3.693l7.393,10.175
		C17.869,13.15,19.213,12.693,20.656,12.583z"/>
	<path fill="#E4B33A" d="M33.314,3.678c-3.252-2.214-7.148-3.552-11.348-3.676V12.58c1.443,0.104,2.789,0.555,3.955,1.274
		L33.314,3.678z"/>
	<path fill="#4E5C5A" d="M13.222,24.66L1.257,28.548c1.387,3.849,3.849,7.185,7.024,9.644l7.393-10.176
		C14.609,27.116,13.762,25.967,13.222,24.66z"/>
	<path fill="#9F9540" d="M15.649,14.646L8.254,4.469c-3.171,2.464-5.628,5.803-7.009,9.655l11.965,3.887
		C13.745,16.701,14.588,15.55,15.649,14.646z"/>
	<path fill="#6A7B54" d="M12.562,21.32c0-0.71,0.087-1.401,0.246-2.062L0.842,15.37C0.294,17.259,0,19.255,0,21.32
		c0,2.077,0.298,4.084,0.851,5.982l11.965-3.888C12.652,22.743,12.562,22.042,12.562,21.32z"/>
	<path fill="#D55641" d="M27.007,27.994l7.394,10.177c3.172-2.464,5.628-5.804,7.008-9.655l-11.964-3.887
		C28.91,25.939,28.068,27.09,27.007,27.994z"/>
	<path fill="#993428" d="M21.999,30.058v12.579c4.2-0.13,8.094-1.474,11.343-3.694l-7.393-10.175
		C24.787,29.49,23.442,29.948,21.999,30.058z"/>
	<path fill="#E8703E" d="M41.803,15.338l-11.965,3.888c0.166,0.671,0.254,1.372,0.254,2.094c0,0.71-0.086,1.4-0.246,2.061
		l11.966,3.888c0.547-1.889,0.842-3.885,0.842-5.95C42.655,19.243,42.358,17.236,41.803,15.338z"/>
	<path fill="#F2A838" d="M29.432,17.98l11.966-3.888c-1.386-3.85-3.849-7.184-7.024-9.644l-7.393,10.176
		C28.045,15.524,28.893,16.672,29.432,17.98z"/>
	<g>
		<path fill="#272524" d="M55.686,30.622c-2.545,0-3.647-1.705-3.647-3.673V11.939h2.677v14.852c0,1.023,0.367,1.548,1.442,1.548
			h1.181v2.283H55.686z"/>
		<path fill="#272524" d="M58.93,14.694v-2.834h2.834v2.834H58.93z M59.009,30.622V17.318h2.676v13.303H59.009z"/>
		<path fill="#272524" d="M68.489,30.622c-2.492,0-3.647-1.784-3.647-3.7v-7.321H63.32v-2.047h1.522v-4.04h2.677v4.04h2.571v2.047
			h-2.571v7.19c0,0.971,0.472,1.548,1.469,1.548h1.102v2.283H68.489z"/>
		<path fill="#272524" d="M88.308,30.622v-8.108c0-2.073-1.181-2.966-2.676-2.966c-1.443,0-2.755,0.919-2.755,2.835v8.239H80.2
			v-8.108c0-2.073-1.181-2.966-2.676-2.966c-1.496,0-2.756,0.919-2.756,2.966v8.108h-2.677V17.318h2.624v1.338
			c0.892-0.971,2.204-1.495,3.542-1.495c1.653,0,2.938,0.656,3.778,1.942c1.076-1.312,2.413-1.942,4.172-1.942
			c1.365,0,2.572,0.446,3.359,1.208c1.023,0.996,1.417,2.256,1.417,3.751v8.502H88.308z"/>
		<path fill="#272524" d="M101.116,30.622v-1.338c-0.918,0.997-2.204,1.496-3.541,1.496c-1.364,0-2.493-0.446-3.28-1.207
			c-1.024-0.997-1.339-2.256-1.339-3.752v-8.502h2.677v8.108c0,2.073,1.18,2.965,2.676,2.965c1.496,0,2.755-0.918,2.755-2.965
			v-8.108h2.677v13.303H101.116z"/>
		<path fill="#272524" d="M110.463,30.78c-2.178,0-4.015-0.368-5.589-1.915l1.758-1.759c1.076,1.103,2.519,1.392,3.831,1.392
			c1.627,0,2.912-0.578,2.912-1.837c0-0.892-0.499-1.469-1.784-1.574l-2.125-0.184c-2.493-0.21-3.936-1.338-3.936-3.673
			c0-2.598,2.23-4.067,5.012-4.067c1.994,0,3.699,0.42,4.933,1.495l-1.678,1.706c-0.84-0.708-2.021-0.971-3.281-0.971
			c-1.601,0-2.414,0.708-2.414,1.705c0,0.787,0.419,1.391,1.836,1.523l2.099,0.183c2.493,0.21,3.963,1.391,3.963,3.752
			C116,29.336,113.638,30.78,110.463,30.78z"/>
	</g>
</g>
</svg>
