<?xml version="1.0" encoding="utf-8"?>
<!-- Generator: Adobe Illustrator 17.1.0, SVG Export Plug-In . SVG Version: 6.00 Build 0)  -->
<!DOCTYPE svg PUBLIC "-//W3C//DTD SVG 1.1//EN" "http://www.w3.org/Graphics/SVG/1.1/DTD/svg11.dtd">
<svg version="1.1" id="Layer_1" xmlns="http://www.w3.org/2000/svg" xmlns:xlink="http://www.w3.org/1999/xlink" x="0px" y="0px"
	 width="160px" height="36.3px" viewBox="0 0 160 36.3" enable-background="new 0 0 160 36.3" xml:space="preserve">
<g>
	<g>
		<path d="M59.7,21.6c-1,0.9-2.1,1.4-3.5,1.4c-1.4,0-2.6-0.5-3.5-1.4c-1-0.9-1.4-2.1-1.4-3.5c0-1.4,0.5-2.6,1.4-3.5
			c1-0.9,2.1-1.4,3.5-1.4c1.4,0,2.6,0.5,3.5,1.4c1,0.9,1.4,2.1,1.4,3.5C61.1,19.5,60.6,20.7,59.7,21.6z M58.9,18.2
			c0-0.8-0.3-1.6-0.8-2.2c-0.5-0.6-1.2-0.9-2-0.9c-0.8,0-1.5,0.3-2,0.9c-0.5,0.6-0.8,1.3-0.8,2.2c0,0.8,0.3,1.6,0.8,2.2
			c0.5,0.6,1.2,0.9,2,0.9c0.8,0,1.5-0.3,2-0.9C58.7,19.7,58.9,19,58.9,18.2z"/>
		<path d="M68.9,23h-4.2v-9.5h3.7c0.6,0,1.2,0.1,1.7,0.2c0.5,0.2,0.8,0.4,1.1,0.6c0.4,0.5,0.6,1,0.6,1.7c0,0.7-0.2,1.3-0.7,1.7
			c-0.2,0.1-0.3,0.2-0.3,0.2c-0.1,0-0.2,0.1-0.3,0.2c0.6,0.1,1.1,0.4,1.4,0.8c0.3,0.4,0.5,0.9,0.5,1.5c0,0.7-0.2,1.2-0.7,1.8
			C71.1,22.7,70.2,23,68.9,23z M66.8,17.3h1c0.6,0,1-0.1,1.3-0.2c0.3-0.1,0.4-0.4,0.4-0.8c0-0.4-0.1-0.7-0.4-0.8
			c-0.3-0.1-0.7-0.2-1.3-0.2h-1V17.3z M66.8,21.2h1.5c0.6,0,1.1-0.1,1.4-0.2c0.3-0.1,0.5-0.4,0.5-0.9c0-0.4-0.2-0.7-0.5-0.9
			C69.3,19,68.8,19,68.1,19h-1.2V21.2z"/>
		<path d="M77.2,15.3v-1.8h4.9v6.2c0,1.1-0.3,2-0.9,2.5C80.7,22.8,80,23,79,23c-1.1,0-2.1-0.4-3-1.3l1.1-1.5
			c0.6,0.6,1.2,0.9,1.8,0.9c0.3,0,0.6-0.1,0.8-0.3c0.2-0.2,0.3-0.6,0.3-1v-4.5H77.2z"/>
		<path d="M94.1,13.5v1.9h-4.7v2h4.2v1.8h-4.2v2h4.9V23h-7v-9.5H94.1z"/>
		<path d="M103,21.1c1,0,1.9-0.4,2.6-1.2l1.4,1.4c-1.1,1.2-2.3,1.8-3.8,1.8c-1.5,0-2.7-0.5-3.6-1.4c-0.9-0.9-1.4-2.1-1.4-3.5
			c0-1.4,0.5-2.6,1.4-3.5c1-0.9,2.1-1.4,3.5-1.4c1.6,0,2.9,0.6,3.9,1.8l-1.3,1.5c-0.7-0.8-1.5-1.2-2.5-1.2c-0.8,0-1.5,0.3-2,0.8
			c-0.6,0.5-0.8,1.2-0.8,2.1c0,0.9,0.3,1.6,0.8,2.1C101.6,20.8,102.3,21.1,103,21.1z"/>
		<path d="M115.6,15.3V23h-2.1v-7.7h-2.7v-1.8h7.5v1.8H115.6z"/>
		<path d="M121.8,22.7c-0.2-0.2-0.3-0.5-0.3-0.8c0-0.3,0.1-0.6,0.3-0.8c0.2-0.2,0.5-0.3,0.8-0.3c0.3,0,0.6,0.1,0.8,0.3
			c0.2,0.2,0.3,0.5,0.3,0.8c0,0.3-0.1,0.6-0.3,0.8c-0.2,0.2-0.5,0.3-0.8,0.3C122.3,23.1,122,22.9,121.8,22.7z"/>
		<path d="M135.1,13.5h2.1V23h-2.1l-4.5-5.9V23h-2.1v-9.5h2l4.7,6.1V13.5z"/>
		<path d="M148.5,13.5v1.9h-4.7v2h4.2v1.8h-4.2v2h4.9V23h-7v-9.5H148.5z"/>
		<path d="M157.3,15.3V23h-2.1v-7.7h-2.7v-1.8h7.5v1.8H157.3z"/>
	</g>
	<path d="M15.7,20.6c1.4,1.4,3.6,1.4,5,0c1.4-1.4,1.4-3.6,0-5c-1.4-1.4-3.6-1.4-5,0C14.3,17,14.3,19.2,15.7,20.6z M16.8,0
		C12.6,0.3,8.5,2.1,5.3,5.3c-7.1,7.1-7.1,18.6,0,25.7c7.1,7.1,18.6,7.1,25.7,0c3.2-3.2,5-7.3,5.3-11.5c0-0.2,0-0.3,0-0.5
		c0-0.3-0.1-0.6-0.3-0.9c-0.1-0.1-0.1-0.2-0.2-0.2c-0.7-0.7-1.8-0.7-2.5,0c-0.1,0.1-0.1,0.2-0.2,0.2c-0.2,0.3-0.3,0.6-0.3,0.9h0
		c-0.2,3.4-1.6,6.8-4.2,9.4c-5.7,5.7-14.9,5.7-20.6,0c-5.7-5.7-5.7-14.9,0-20.6c2.6-2.6,5.9-4,9.3-4.2l0,0c0.4,0,0.7-0.1,1-0.3
		c0.1-0.1,0.2-0.1,0.2-0.2c0.7-0.7,0.7-1.8,0-2.5c-0.1-0.1-0.2-0.1-0.2-0.2C18,0.1,17.7,0,17.4,0C17.2,0,17,0,16.8,0z M10.4,25.9
		c4.3,4.3,11.2,4.3,15.5,0c4.3-4.3,4.3-11.2,0-15.5c-4.3-4.3-11.2-4.3-15.5,0C6.2,14.7,6.2,21.6,10.4,25.9z M23.3,13
		c2.8,2.8,2.8,7.4,0,10.2c-2.8,2.8-7.4,2.8-10.2,0c-2.8-2.8-2.8-7.4,0-10.2C15.9,10.2,20.5,10.2,23.3,13z"/>
</g>
</svg>
