<?xml version="1.0" encoding="UTF-8" standalone="no"?>
<!-- Created with Inkscape (http://www.inkscape.org/) -->

<svg
   xmlns:dc="http://purl.org/dc/elements/1.1/"
   xmlns:cc="http://creativecommons.org/ns#"
   xmlns:rdf="http://www.w3.org/1999/02/22-rdf-syntax-ns#"
   xmlns:svg="http://www.w3.org/2000/svg"
   xmlns="http://www.w3.org/2000/svg"
   xmlns:sodipodi="http://sodipodi.sourceforge.net/DTD/sodipodi-0.dtd"
   xmlns:inkscape="http://www.inkscape.org/namespaces/inkscape"
   width="200"
   height="200"
   id="svg2"
   version="1.1"
   inkscape:version="0.48.2 r9819"
   sodipodi:docname="dotnetfringe-logo-square.svg"
   inkscape:export-filename="/Users/thoward/github/dotnetfringe/dotnetfringe.github.io/img/vector/dotnetfringe-logo-square.png"
   inkscape:export-xdpi="115.2"
   inkscape:export-ydpi="115.2">
  <defs
     id="defs4">
    <inkscape:perspective
       sodipodi:type="inkscape:persp3d"
       inkscape:vp_x="0 : 526.18109 : 1"
       inkscape:vp_y="0 : 1000 : 0"
       inkscape:vp_z="744.09448 : 526.18109 : 1"
       inkscape:persp3d-origin="372.04724 : 350.78739 : 1"
       id="perspective2447" />
    <inkscape:perspective
       id="perspective10"
       inkscape:persp3d-origin="372.04724 : 350.78739 : 1"
       inkscape:vp_z="744.09448 : 526.18109 : 1"
       inkscape:vp_y="0 : 1000 : 0"
       inkscape:vp_x="0 : 526.18109 : 1"
       sodipodi:type="inkscape:persp3d" />
  </defs>
  <sodipodi:namedview
     id="base"
     pagecolor="#ffffff"
     bordercolor="#666666"
     borderopacity="1.0"
     inkscape:pageopacity="0.0"
     inkscape:pageshadow="2"
     inkscape:zoom="1.3085747"
     inkscape:cx="137.75773"
     inkscape:cy="37.748105"
     inkscape:document-units="px"
     inkscape:current-layer="text3483"
     showgrid="false"
     units="px"
     inkscape:window-width="925"
     inkscape:window-height="693"
     inkscape:window-x="90"
     inkscape:window-y="62"
     inkscape:window-maximized="0"
     fit-margin-top="0"
     fit-margin-left="0"
     fit-margin-right="0"
     fit-margin-bottom="0"
     showguides="false"
     inkscape:guide-bbox="true"
     showborder="true">
    <sodipodi:guide
       orientation="1,0"
       position="20.059994,96.287971"
       id="guide4373" />
    <sodipodi:guide
       orientation="1,0"
       position="179.9668,73.553311"
       id="guide4375" />
    <sodipodi:guide
       orientation="0,1"
       position="123.20302,172.91651"
       id="guide4379" />
    <sodipodi:guide
       orientation="0,1"
       position="179.9668,22.695292"
       id="guide4381" />
  </sodipodi:namedview>
  <metadata
     id="metadata7">
    <rdf:RDF>
      <cc:Work
         rdf:about="">
        <dc:format>image/svg+xml</dc:format>
        <dc:type
           rdf:resource="http://purl.org/dc/dcmitype/StillImage" />
        <dc:title></dc:title>
      </cc:Work>
    </rdf:RDF>
  </metadata>
  <!-- transform="translate(-104.40808,91.203418)"> -->
  <!-- transform="matrix(0.93969262,-0.34202014,0.34202014,0.93969262,0,0)" -->
  <g
     inkscape:label="Layer 1"
     inkscape:groupmode="layer"
     id="layer1"
     transform="translate(-8.4669888,102.05791)">
    <g
       style="font-size:63.50114059px;font-style:normal;font-variant:normal;font-weight:bold;font-stretch:normal;line-height:125%;letter-spacing:0px;word-spacing:0px;fill:#000000;fill-opacity:1;stroke:none;font-family:Intro Cond;-inkscape-font-specification:Intro Cond Bold"
       id="text3483">
      <rect
         style="fill:#ffffff;fill-opacity:1;stroke:#f2f2f2;stroke-width:0.52849566999999997;stroke-miterlimit:4;stroke-opacity:1;stroke-dasharray:1.05699130999999991, 1.05699130999999991;stroke-dashoffset:0;opacity:1"
         id="rect4359"
         width="199.47151"
         height="199.47151"
         x="8.7312355"
         y="-101.79368" />
      <path
         d="M 60.569767,-40.317065 62.742137,-38.144696 54.857243,-28.892018 62.581218,-19.880711 60.489308,-17.627884 52.684876,-26.639191 45.041356,-17.547425 42.949445,-19.719795 50.834337,-28.811559 42.78853,-38.144696 44.880441,-40.317065 52.845789,-31.064385 60.569767,-40.317065 M 28.466991,-28.892018 C 28.466991,-15.455529 39.328845,-4.5936754 52.765331,-4.5936754 66.20182,-4.5936754 77.144133,-15.455529 77.144133,-28.892018 77.144133,-42.328504 66.20182,-53.270816 52.765331,-53.270816 39.328845,-53.270816 28.466991,-42.328504 28.466991,-28.892018"
         style="font-size:48.36570358000000169px;fill:#00d1d1;fill-opacity:1"
         id="path3525"
         inkscape:connector-curvature="0" />
      <g
         id="g4354"
         transform="matrix(0.73059183,0,0,0.73059183,20.454597,-4.21735)"
         style="fill:#0000ff;stroke:none;fill-opacity:1">
        <path
           inkscape:connector-curvature="0"
           id="path3527"
           style="fill:#0000ff;stroke:none;fill-opacity:1"
           d="M 103.27753,0.85653382 103.27753,-31.098188 131.29648,1.3250776 135.98193,1.3250776 135.98193,-64.73967 119.77029,-64.73967 119.77029,-33.440909 92.126177,-65.301922 87.065898,-65.301922 87.065898,0.85653382 103.27753,0.85653382" />
        <path
           inkscape:connector-curvature="0"
           id="path3529"
           style="fill:#0000ff;stroke:none;fill-opacity:1"
           d="M 163.4928,-49.83996 182.60941,-49.83996 182.60941,-64.73967 147.37488,-64.73967 147.37488,0.85653382 183.35909,0.85653382 183.35909,-14.792847 163.4928,-14.792847 163.4928,-25.475656 180.92264,-25.475656 180.92264,-40.469073 163.4928,-40.469073 163.4928,-49.83996" />
        <path
           inkscape:connector-curvature="0"
           id="path3531"
           style="fill:#0000ff;stroke:none;fill-opacity:1"
           d="M 188.4545,-64.73967 188.4545,-49.746252 201.38633,-49.746252 201.38633,0.85653382 217.1294,0.85653382 217.1294,-49.746252 229.96752,-49.746252 229.96752,-64.73967 188.4545,-64.73967" />
      </g>
      <g
         transform="matrix(0.77286225,0,0,0.77286225,-81.916426,-24.54075)"
         id="g4383"
         style="fill:#4d4d4d">
        <path
           d="M 159.25521,83.019325 170.49491,83.019325 172.52695,72.859142 161.28724,72.859142 163.25578,63.016466 176.14651,63.016466 178.17855,52.919784 154.30212,52.919784 145.41196,97.370583 156.39766,97.370583 159.25521,83.019325"
           style="font-style:italic;font-variant:normal;font-stretch:normal;fill:#4d4d4d;font-family:Intro Cond;-inkscape-font-specification:Intro Cond Bold Italic"
           id="path4385"
           inkscape:connector-curvature="0" />
        <path
           d="M 207.94768,97.307081 208.07469,96.735571 203.75661,80.606281 C 208.26519,77.685232 210.42423,73.684652 211.50375,68.604566 213.34528,59.206406 208.64619,52.919784 199.62904,52.919784 L 183.94425,52.919784 175.05409,97.307081 186.03979,97.307081 188.83384,83.400332 193.02492,83.400332 195.94597,97.307081 207.94768,97.307081 M 190.54837,73.938662 192.70741,62.952964 197.5335,62.952964 C 200.20054,62.952964 201.59757,65.112006 200.89906,68.350561 200.26405,71.716118 198.0415,73.938662 195.37446,73.938662 L 190.54837,73.938662"
           style="font-style:italic;font-variant:normal;font-stretch:normal;fill:#4d4d4d;font-family:Intro Cond;-inkscape-font-specification:Intro Cond Bold Italic"
           id="path4387"
           inkscape:connector-curvature="0" />
        <path
           d="M 231.42426,97.370583 233.3293,87.972414 228.82072,87.972414 233.90081,62.317953 237.96488,62.317953 239.86991,52.919784 220.81957,52.919784 218.91454,62.317953 222.91511,62.317953 217.83502,87.972414 213.38994,87.972414 211.4849,97.370583 231.42426,97.370583"
           style="font-style:italic;font-variant:normal;font-stretch:normal;fill:#4d4d4d;font-family:Intro Cond;-inkscape-font-specification:Intro Cond Bold Italic"
           id="path4389"
           inkscape:connector-curvature="0" />
        <path
           d="M 248.73328,97.370583 253.05136,75.716694 267.65662,97.688088 270.83168,97.688088 279.78534,52.919784 268.79964,52.919784 264.54506,74.129165 250.1303,52.538777 246.70124,52.538777 237.74758,97.370583 248.73328,97.370583"
           style="font-style:italic;font-variant:normal;font-stretch:normal;fill:#4d4d4d;font-family:Intro Cond;-inkscape-font-specification:Intro Cond Bold Italic"
           id="path4391"
           inkscape:connector-curvature="0" />
        <path
           d="M 281.15559,75.208685 C 278.42504,88.861416 284.39416,97.942093 296.14186,97.942093 309.92159,97.942093 317.35124,86.257869 319.12927,72.16063 L 301.28545,72.16063 299.38041,81.939805 306.11153,81.939805 C 304.143,86.194378 301.34895,87.337402 298.30089,87.337402 293.22081,87.337402 290.80776,82.447807 292.26829,75.145183 293.79231,67.652056 297.66589,62.69896 303.19048,62.69896 306.42904,62.69896 308.52458,64.032487 308.96909,67.588548 L 319.63728,67.588548 C 319.89128,56.666362 312.77915,52.284773 305.28602,52.284773 294.04633,52.284773 283.88613,61.428951 281.15559,75.208685"
           style="font-style:italic;font-variant:normal;font-stretch:normal;fill:#4d4d4d;font-family:Intro Cond;-inkscape-font-specification:Intro Cond Bold Italic"
           id="path4393"
           inkscape:connector-curvature="0" />
        <path
           d="M 337.44835,63.016466 350.40258,63.016466 352.43462,52.919784 328.55819,52.919784 319.66803,97.370583 344.05247,97.370583 346.14801,86.765892 332.68577,86.765892 334.14629,79.526762 345.9575,79.526762 347.98954,69.36658 336.17833,69.36658 337.44835,63.016466"
           style="font-style:italic;font-variant:normal;font-stretch:normal;fill:#4d4d4d;font-family:Intro Cond;-inkscape-font-specification:Intro Cond Bold Italic"
           id="path4395"
           inkscape:connector-curvature="0" />
      </g>
      <g
         id="g4336"
         transform="matrix(0.77286225,0,0,0.77286225,-83.916426,-26.54075)">
        <path
           inkscape:connector-curvature="0"
           id="path3533"
           style="font-style:italic;font-variant:normal;font-stretch:normal;fill:#ff00ff;font-family:Intro Cond;-inkscape-font-specification:Intro Cond Bold Italic"
           d="M 159.25521,83.019325 170.49491,83.019325 172.52695,72.859142 161.28724,72.859142 163.25578,63.016466 176.14651,63.016466 178.17855,52.919784 154.30212,52.919784 145.41196,97.370583 156.39766,97.370583 159.25521,83.019325" />
        <path
           inkscape:connector-curvature="0"
           id="path3535"
           style="font-style:italic;font-variant:normal;font-stretch:normal;fill:#ff00ff;font-family:Intro Cond;-inkscape-font-specification:Intro Cond Bold Italic"
           d="M 207.94768,97.307081 208.07469,96.735571 203.75661,80.606281 C 208.26519,77.685232 210.42423,73.684652 211.50375,68.604566 213.34528,59.206406 208.64619,52.919784 199.62904,52.919784 L 183.94425,52.919784 175.05409,97.307081 186.03979,97.307081 188.83384,83.400332 193.02492,83.400332 195.94597,97.307081 207.94768,97.307081 M 190.54837,73.938662 192.70741,62.952964 197.5335,62.952964 C 200.20054,62.952964 201.59757,65.112006 200.89906,68.350561 200.26405,71.716118 198.0415,73.938662 195.37446,73.938662 L 190.54837,73.938662" />
        <path
           inkscape:connector-curvature="0"
           id="path3537"
           style="font-style:italic;font-variant:normal;font-stretch:normal;fill:#ff00ff;font-family:Intro Cond;-inkscape-font-specification:Intro Cond Bold Italic"
           d="M 231.42426,97.370583 233.3293,87.972414 228.82072,87.972414 233.90081,62.317953 237.96488,62.317953 239.86991,52.919784 220.81957,52.919784 218.91454,62.317953 222.91511,62.317953 217.83502,87.972414 213.38994,87.972414 211.4849,97.370583 231.42426,97.370583" />
        <path
           inkscape:connector-curvature="0"
           id="path3539"
           style="font-style:italic;font-variant:normal;font-stretch:normal;fill:#ff00ff;font-family:Intro Cond;-inkscape-font-specification:Intro Cond Bold Italic"
           d="M 248.73328,97.370583 253.05136,75.716694 267.65662,97.688088 270.83168,97.688088 279.78534,52.919784 268.79964,52.919784 264.54506,74.129165 250.1303,52.538777 246.70124,52.538777 237.74758,97.370583 248.73328,97.370583" />
        <path
           inkscape:connector-curvature="0"
           id="path3541"
           style="font-style:italic;font-variant:normal;font-stretch:normal;fill:#ff00ff;font-family:Intro Cond;-inkscape-font-specification:Intro Cond Bold Italic"
           d="M 281.15559,75.208685 C 278.42504,88.861416 284.39416,97.942093 296.14186,97.942093 309.92159,97.942093 317.35124,86.257869 319.12927,72.16063 L 301.28545,72.16063 299.38041,81.939805 306.11153,81.939805 C 304.143,86.194378 301.34895,87.337402 298.30089,87.337402 293.22081,87.337402 290.80776,82.447807 292.26829,75.145183 293.79231,67.652056 297.66589,62.69896 303.19048,62.69896 306.42904,62.69896 308.52458,64.032487 308.96909,67.588548 L 319.63728,67.588548 C 319.89128,56.666362 312.77915,52.284773 305.28602,52.284773 294.04633,52.284773 283.88613,61.428951 281.15559,75.208685" />
        <path
           inkscape:connector-curvature="0"
           id="path3543"
           style="font-style:italic;font-variant:normal;font-stretch:normal;fill:#ff00ff;font-family:Intro Cond;-inkscape-font-specification:Intro Cond Bold Italic"
           d="M 337.44835,63.016466 350.40258,63.016466 352.43462,52.919784 328.55819,52.919784 319.66803,97.370583 344.05247,97.370583 346.14801,86.765892 332.68577,86.765892 334.14629,79.526762 345.9575,79.526762 347.98954,69.36658 336.17833,69.36658 337.44835,63.016466" />
      </g>
      <path
         style="fill:#800080;stroke:#cccccc;stroke-width:5;stroke-linecap:butt;stroke-linejoin:miter;stroke-miterlimit:4;stroke-opacity:1;stroke-dasharray:5, 5;stroke-dashoffset:0"
         d="M 25.966989,75.44209 190.87563,75.251042"
         id="path4361"
         inkscape:connector-curvature="0"
         sodipodi:nodetypes="cc" />
      <path
         sodipodi:nodetypes="cc"
         inkscape:connector-curvature="0"
         id="path4377"
         d="M 25.966989,-74.55791 190.87563,-74.748958"
         style="fill:#ffff00;stroke:#cccccc;stroke-width:5;stroke-linecap:butt;stroke-linejoin:miter;stroke-miterlimit:4;stroke-opacity:1;stroke-dasharray:5, 5;stroke-dashoffset:0;fill-opacity:1" />
    </g>
  </g>
</svg>
